<svg viewBox="0 0 267 344" fill="none" xmlns="http://www.w3.org/2000/svg">
<path fill-rule="evenodd" clip-rule="evenodd" d="M101.491 151.488C102.601 148.687 106.352 149.776 105.934 152.718C105.684 154.481 104.723 156.342 103.859 157.887C103.156 159.144 102.355 160.371 101.267 161.314C103.203 163.127 105.211 164.875 107.271 166.534C109.519 168.344 111.882 170.012 114.325 171.546C116.467 172.89 118.706 174.082 120.726 175.616C122.603 177.043 124.313 178.759 125.184 180.999C126.111 183.384 125.708 185.847 125.025 188.23L124.947 188.5C124.249 190.861 123.042 193.708 124.716 195.933C125.568 197.065 126.808 197.867 127.878 198.773C128.828 199.578 129.721 200.453 130.54 201.393C132.325 203.442 133.776 205.748 134.692 208.318L134.774 208.551C135.56 210.826 136.133 213.612 135.072 215.845C134.768 216.485 133.786 216.277 133.616 215.654C133.23 214.242 133.25 212.763 132.927 211.331C132.591 209.842 132.031 208.428 131.3 207.091C129.886 204.503 127.97 202.293 125.707 200.424L125.03 199.871C123.265 198.416 121.643 196.872 121.284 194.464C120.901 191.887 121.929 189.433 122.59 186.994C123.05 185.295 123.201 183.666 122.703 182.13C122.095 183.127 121.265 184.073 120.609 184.917C119.302 186.598 117.983 188.269 116.667 189.944C115.318 191.661 114.003 193.404 112.75 195.193C112.189 195.994 111.635 196.799 111.082 197.605C110.667 198.21 110.087 198.816 109.634 199.433C109.744 199.764 109.736 200.145 109.536 200.415C107.134 203.675 103.717 196.873 102.826 195.155C101.011 191.656 99.6598 187.938 97.8387 184.439C95.9518 180.812 93.8031 177.282 91.4083 173.971C89.9597 171.968 88.3361 170.086 87.011 168.02C83.8891 170.863 79.7811 172.769 76.0077 174.497C71.8619 176.396 67.5548 177.947 63.3041 179.594L62.0485 180.084C54.7245 182.955 47.2215 186.109 41.1338 191.208C33.9803 197.201 29.7482 205.552 26.5976 214.201C22.9708 224.157 19.9702 234.383 17.1732 244.601C15.7419 249.83 14.3838 255.082 13.107 260.351C11.9819 264.993 11.0493 269.681 9.74688 274.275C12.3883 274.181 15.4008 275.208 17.656 275.505C27.9338 276.856 38.0732 279.01 47.7766 282.739C48.9752 283.199 49.322 284.402 49.061 285.376C49.7522 285.18 50.4429 284.982 51.1341 284.787C50.3768 283.621 50.7383 281.538 50.7978 280.246L50.8015 280.157C50.8627 278.436 51.0486 276.713 51.1692 274.995C51.3987 271.72 51.6976 268.468 52.095 265.212L52.1964 264.398C52.6468 260.855 52.9797 257.291 53.4711 253.754L53.5292 253.349C53.2936 252.445 53.0192 251.551 52.7313 250.661C51.9639 248.29 50.881 246.059 49.9319 243.763C49.8199 243.493 50.2033 243.337 50.3825 243.499C51.9898 244.952 53.2666 246.794 54.2923 248.721C54.3101 248.63 54.3258 248.539 54.3444 248.448L54.4614 247.869C54.75 246.458 55.1011 244.974 55.963 243.829C56.0548 243.708 56.2363 243.682 56.3231 243.829C57.1479 245.231 57.2403 247.007 57.3671 248.602C57.5107 250.406 57.5287 252.234 57.5034 254.043C57.4539 257.579 57.2057 261.126 57.008 264.656C56.8141 268.126 56.4332 271.551 55.9423 274.986L55.8489 275.631C55.609 277.266 55.4125 278.921 55.096 280.545L55.0066 280.987C54.8374 281.793 54.7333 282.928 54.3964 283.871C63.0629 281.444 71.7427 279.071 80.4391 276.74C86.7243 275.056 93.0162 273.396 99.3054 271.726C99.6373 271.125 100.05 270.564 100.566 270.063C102.265 268.41 104.517 267.673 106.582 268.945C106.75 269.049 106.764 269.313 106.582 269.413C106.187 269.63 105.79 269.853 105.401 270.085L109.177 269.058C112 268.29 114.856 267.33 117.745 266.794C123.067 264.156 128.79 262.247 134.396 260.361L135.056 260.136C137.926 259.153 140.895 258.053 143.861 257.508C146.031 257.11 148.58 257.591 149.453 259.825C150.558 260.556 151.598 261.416 152.601 262.261C153.327 262.872 154.022 263.522 154.729 264.154L154.86 264.269C155.438 264.773 155.896 265.111 156.038 265.912C156.111 266.327 155.849 266.887 155.34 266.832C153.784 266.664 152.518 264.853 151.463 263.771C150.647 262.934 149.825 262.07 149.081 261.15C148.647 261.388 148.053 261.345 147.776 260.82C146.344 258.096 142.421 259.983 140.25 260.629L137.141 261.554C135.586 262.017 134.032 262.482 132.481 262.955C128.217 264.255 123.974 265.711 119.671 266.905C120.056 267.33 120.003 268.086 119.272 268.374C115.904 269.701 112.209 270.388 108.71 271.298C106.501 271.874 104.293 272.453 102.086 273.035C101.708 273.651 101.435 274.347 101.321 275.158C100.9 278.14 101.712 281.579 102.503 284.463L102.622 284.893C103.273 287.212 104.23 290.054 106.221 291.518C106.707 291.875 107.326 292.123 107.95 292.179C111.849 290.164 115.747 288.149 119.648 286.137C120.371 285.764 121.038 286.269 121.2 286.869C122.576 286.642 123.948 286.285 125.198 285.859C127.298 285.143 128.938 283.777 130.907 282.832C134.716 281.004 138.606 283.249 142.017 284.956L142.803 285.344C144.332 286.089 147.514 287.521 148.248 285.483C148.958 283.51 146.714 281.403 145.265 280.515C143.537 279.457 141.525 278.891 139.573 278.419C138.458 278.149 137.329 277.93 136.194 277.769C134.906 277.587 133.576 277.614 132.336 277.195C131.72 276.987 131.625 276.004 132.336 275.842C134.245 275.405 136.523 275.881 138.515 276.367L139.556 276.625C141.562 277.12 143.589 277.74 145.416 278.727C146.745 279.445 148.148 280.535 149.065 281.869C149.86 281.127 150.851 281.152 151.883 281.427L152.443 281.583C153.367 281.841 154.117 282.018 155.017 281.84C155.137 281.182 155.259 280.524 155.389 279.867C156.672 273.401 158.078 266.961 159.63 260.554C162.306 249.505 165.403 238.576 168.894 227.759L169.245 226.678C170.05 224.204 170.698 221.508 171.996 219.236C173.224 217.086 175.192 215.848 177.529 215.193C180.181 214.449 182.968 214.06 185.674 213.557C186.278 213.445 186.883 213.339 187.487 213.229C186.976 212.303 186.595 211.252 186.252 210.446L186.192 210.306C185.454 208.617 184.792 206.898 184.152 205.17L183.674 203.871C182.519 200.742 181.327 197.665 179.703 194.739C177.993 191.659 175.726 189.142 172.899 187.058C167.135 182.809 160.188 180.642 154.598 176.101C154.369 175.915 154.663 175.597 154.895 175.714C158.67 177.619 162.745 178.915 166.671 180.465L167.445 180.772C170.548 182.008 173.7 183.353 176.386 185.353C179.38 187.584 181.739 190.354 183.511 193.648C185.258 196.895 186.376 200.53 187.608 203.998L187.938 204.922C188.435 206.308 188.949 207.689 189.537 209.038C190.004 210.109 190.876 211.331 191.272 212.554C192.356 212.365 193.44 212.176 194.525 211.994C218.028 208.052 241.793 205.737 265.611 205.059C266.543 205.033 267.025 205.926 266.887 206.742C264.602 220.317 262.57 233.939 260.342 247.524C259.369 253.453 258.377 259.378 257.361 265.3C256.847 268.3 256.252 271.289 255.765 274.293C255.371 276.72 255.086 279.165 254.411 281.536C253.805 283.661 252.875 285.71 251.349 287.332C249.703 289.08 247.407 289.926 245.095 290.325C239.226 291.34 233.206 291.754 227.289 292.43L195.789 296.029C196.249 300.232 196.284 304.369 196.073 308.62L195.952 310.941C195.854 312.807 195.736 314.677 195.469 316.524C195.135 318.842 194.079 320.804 192.524 322.535C191.097 324.125 189.362 325.481 187.675 326.781C185.924 328.131 184.114 329.433 182.055 330.268L181.788 330.374C179.982 331.083 176.593 332.179 174.124 331.779C174.447 333.403 175.071 335.149 174.518 336.756C174.261 337.502 173.289 337.874 172.694 337.239C171.515 335.981 171.423 334.319 171.144 332.677C170.853 330.969 170.602 329.254 170.38 327.536C169.949 324.213 169.614 320.859 169.512 317.508C169.407 314.067 169.448 310.62 169.632 307.182C169.727 305.417 169.845 303.653 170.068 301.899C170.163 301.151 170.26 300.402 170.372 299.656C170.412 299.384 170.457 299.113 170.505 298.842L167.678 299.163C163.343 299.649 159.006 300.088 154.64 300.156C154.123 300.164 153.725 299.928 153.465 299.583C153.188 300.036 152.706 300.36 152.015 300.358C145.918 300.335 140.24 298.333 134.695 295.973C131.9 294.783 129.148 293.495 126.348 292.315C123.735 291.214 120.942 290.428 118.392 289.188L111.692 292.718C111.643 292.891 111.58 293.056 111.513 293.193C111.076 294.087 110.216 294.573 109.338 294.938C108.495 295.289 107.621 295.399 106.771 295.31C101.689 297.984 96.6064 300.656 91.5203 303.322L86.433 305.985C76.2972 311.286 66.2015 316.673 56.0019 321.849L55.251 322.229C51.7281 324.003 47.9451 325.801 44.0355 327.143C43.9659 328.137 44.0099 329.104 44.0928 330.156L44.1127 330.385C44.2293 331.628 44.4792 333.186 43.4863 334.071C42.9698 334.531 42.0471 334.533 41.6959 333.839C41.0585 332.581 41.6307 330.597 41.8326 329.23C41.9043 328.743 41.9916 328.244 42.1208 327.759C37.6388 329.099 33.021 329.749 28.46 328.996C24.0192 328.264 20.5799 325.454 17.8072 322.017C14.8809 318.391 12.8015 314.164 11.6858 309.633C10.4161 304.478 10.3332 299.153 10.363 293.872C10.3947 288.249 10.6018 282.598 11.2828 277.012C10.5367 276.836 9.70922 276.683 8.95524 276.736C8.58177 277.336 7.85734 277.589 7.20274 277.511C5.77925 279.088 9.38989 280.699 10.5438 281.103C10.9444 281.243 10.9015 281.896 10.4394 281.877L10.1483 281.863C8.36539 281.767 6.52339 281.462 5.47509 279.798C4.63506 278.464 4.88744 276.884 5.88883 275.796C6.55023 269.515 8.13142 263.399 9.60304 257.272C11.0472 251.258 12.6532 245.283 14.3555 239.338L15.1187 236.677C17.7989 227.355 20.6004 217.958 24.2975 209.007C26.1436 204.537 28.2703 200.15 31.1532 196.253C33.8404 192.62 37.0129 189.511 40.6597 186.856C47.4581 181.906 55.4353 178.915 63.2733 176.065L63.6242 175.937C67.6859 174.462 71.7378 172.968 75.7533 171.37C79.3045 169.956 82.7068 168.163 86.2413 166.728C86.1265 166.518 86.0156 166.307 85.9089 166.093L85.8436 166.148C85.8324 166.157 85.8209 166.165 85.809 166.173C85.4536 166.421 84.9303 166.299 84.6374 166.022C83.8103 165.238 84.0903 164.368 84.6424 163.555L84.7142 163.451C85.3895 162.501 85.9918 161.497 86.615 160.512L87.0053 159.897C88.0514 158.252 89.1507 156.596 90.5455 155.237C91.1915 154.607 91.8987 154.136 92.6479 153.785C92.5839 153.649 93.1456 153.37 93.3049 153.51C95.6788 152.638 98.4099 152.821 100.998 153.061M194.265 296.203L190.965 296.58C187.333 296.995 183.701 297.396 180.068 297.794L172.177 298.655C172.157 299.107 172.102 299.549 172.092 299.89C172.041 301.649 172.002 303.409 171.966 305.168C171.893 308.695 171.973 312.226 172.204 315.746C172.428 319.157 172.724 322.569 173.182 325.957L173.276 326.634L173.33 326.99C173.705 327.027 174.072 327.205 174.378 327.572C175.046 328.373 177.462 327.595 178.406 327.257C179.958 326.703 181.42 325.765 182.769 324.825C184.086 323.908 185.272 322.838 186.412 321.711L187.344 320.784C188.272 319.858 189.2 318.872 189.769 317.708C190.539 316.129 190.639 314.19 190.865 312.47C191.143 310.355 191.474 308.239 191.825 306.134M98.4529 273.997L98.1106 274.087C85.6747 277.406 73.2574 280.823 60.7833 283.995C54.6102 285.565 48.4078 287.021 42.2272 288.561L41.2265 288.812C36.3506 290.05 31.4162 291.54 27.6823 295.092C27.5445 295.223 27.3444 295.022 27.4741 294.883C31.4983 290.58 37.2215 288.759 42.7167 287.18C43.7325 286.888 44.7496 286.603 45.7656 286.313C38.2922 283.637 30.7009 281.309 22.9343 279.649C20.9344 279.221 18.9112 278.907 16.9129 278.478C15.5192 278.178 14.1582 277.746 12.7793 277.386L11.6946 277.112L11.6802 280.555C11.6622 285.432 11.6708 290.304 11.9185 295.18L11.9654 296.083C12.2544 301.509 12.7055 307.048 14.6227 312.164C16.1806 316.322 18.6638 320.238 21.9112 323.267C23.5544 324.799 25.321 325.992 27.5047 326.581C29.5324 327.127 31.6567 327.191 33.7411 327.046C43.739 326.345 52.6388 320.89 61.3236 316.374C75.529 308.987 89.736 301.603 103.956 294.245C103.571 293.981 103.209 293.677 102.88 293.335C100.973 291.357 99.9674 288.649 99.3068 286.027C98.6036 283.236 98.183 280.244 98.1341 277.363M116.546 297.096C116.672 297.028 116.817 297.113 116.823 297.256C116.867 298.346 116.267 299.422 115.818 300.405L115.771 300.51C115.226 301.727 114.63 302.928 114.013 304.11C112.78 306.472 111.498 308.808 110.161 311.112C107.471 315.745 104.482 320.184 100.95 324.218C100.152 325.13 98.8395 323.961 99.3516 322.98C101.82 318.249 104.698 313.783 107.661 309.355C109.144 307.138 110.626 304.919 112.124 302.712C112.749 301.791 113.382 300.873 114.032 299.97L114.424 299.429M264.036 207.769C251.557 208.147 239.092 208.965 226.672 210.246C215.121 211.437 203.613 213.023 192.17 214.999C189.78 215.412 187.392 215.842 185.008 216.289L183.578 216.559C181.193 217.013 178.28 217.2 176.157 218.48C173.919 219.828 173.314 222.647 172.569 224.972C171.693 227.706 170.84 230.448 170.01 233.196C166.712 244.108 163.7 255.115 161.013 266.194C159.68 271.693 158.496 277.224 157.249 282.743C156.141 287.647 154.919 292.496 153.642 297.351C153.799 297.228 153.992 297.134 154.225 297.084C160.567 295.729 167.04 295.14 173.476 294.392L174.099 294.319C180.757 293.532 187.416 292.752 194.078 291.999L238.187 287.017C240.788 286.724 243.575 286.684 246.107 285.983C250.411 284.79 251.42 279.957 252.142 276.108L252.164 275.992C254.341 264.363 256.074 252.632 258.104 240.974M154.668 283.832C152.956 283.719 150.612 282.143 149.313 282.256C149.995 283.406 150.303 284.717 149.91 286.117C148.816 290.013 143.868 287.997 141.485 286.807C139.532 285.831 137.645 284.636 135.482 284.179C133.031 283.661 131.371 284.64 129.301 285.768C127.6 286.694 125.749 287.36 123.844 287.704C122.831 287.887 121.87 287.907 120.91 287.835C120.852 287.883 120.787 287.927 120.712 287.966L120.204 288.233C122.501 288.339 124.84 289.051 126.977 289.703C129.192 290.377 131.366 291.191 133.528 292.023L135.656 292.845C140.904 294.863 146.336 296.78 152.015 296.763C152.423 296.762 152.758 296.875 153.021 297.06M145.087 271.625C146.779 271.417 148.341 271.64 149.693 272.746C151.323 274.08 152.418 276.292 154.762 276.437C155.445 276.48 155.604 277.445 154.925 277.646C153.18 278.165 151.768 277.217 150.579 275.986L149.78 275.148C148.605 273.926 147.522 272.982 145.529 273.055C143.394 273.133 141.256 273.628 139.135 273.88C136.733 274.165 134.331 274.409 131.921 274.618C131.809 274.628 131.79 274.451 131.895 274.425L134.594 273.75M143.454 264.678L143.733 264.65C146.19 264.411 148.437 264.401 150.631 265.729L151.052 265.984C153.03 267.192 155.183 268.615 156.42 270.57C156.623 270.89 156.288 271.266 155.949 271.185C153.572 270.612 151.834 268.86 149.834 267.549C147.59 266.077 145.273 266.32 142.714 266.548C140.237 266.77 137.761 267.074 135.308 267.489C133.003 267.878 130.691 268.493 128.363 268.689L128.364 268.684C128.098 268.683 127.946 268.282 128.217 268.146C130.58 266.961 133.316 266.4 135.886 265.859M218.085 240.291C217.848 239.15 219.245 238.621 219.892 239.526L220.03 239.717C221.429 241.642 223.452 244.057 223.349 246.505C224.579 246.532 225.854 247.283 226.333 248.397C226.554 248.913 226.629 249.524 226.581 250.156C227.698 250.244 228.917 250.981 229.601 251.698C230.733 252.888 230.823 254.569 230.01 255.959C228.239 258.989 224.368 260.091 221.101 260.338L220.984 260.346C217.61 260.58 212.747 260.517 210.433 257.609C208.201 254.804 210.668 252.533 213.197 251.3C212.539 250.696 212.198 249.83 212.518 248.916C213.082 247.311 215.069 246.691 216.193 245.575C217.562 244.215 218.467 242.348 218.106 240.397M219.94 242.758C219.568 244.382 218.653 245.868 217.38 247.045C216.893 247.495 216.36 247.896 215.794 248.24L215.726 248.28C215.224 248.563 213.99 249.094 214.085 249.729C214.182 250.382 216.194 251.404 216.742 251.405C216.867 251.405 216.937 251.6 216.81 251.657C215.816 252.098 214.949 252.287 213.977 251.821C213.328 252.487 212.697 253.175 212.073 253.858C210.968 255.066 211.346 256.342 212.651 257.241C214.748 258.686 217.936 258.651 220.382 258.546C222.845 258.44 225.477 257.889 227.401 256.241L227.485 256.168C228.53 255.234 229.485 253.652 227.884 252.752C227.257 252.4 226.58 252.421 225.984 252.25C225.427 253.346 224.524 254.225 223.421 254.394C222.53 254.531 221.916 253.406 222.727 252.868L222.909 252.754C223.927 252.102 224.795 251.097 224.772 249.788C224.757 248.88 223.493 247.732 222.67 248.586L222.633 248.627C221.944 249.406 220.731 248.424 221.184 247.56L221.206 247.521M59.3307 197.584C59.3276 197.389 59.6009 197.316 59.6964 197.485C61.2948 200.309 62.1304 203.771 62.9819 206.883C63.8738 210.143 64.5937 213.436 65.2405 216.753C66.5505 223.469 67.2485 230.148 67.2959 236.993C67.3024 237.971 65.717 238.231 65.5619 237.229C64.5323 230.57 63.5458 223.904 62.5083 217.247C61.9863 213.899 61.3788 210.564 60.7974 207.225M75.1555 202.504C75.0378 202.114 75.6021 201.984 75.7465 202.34C78.9544 210.249 80.0408 219.211 77.9812 227.555C77.6661 228.831 75.8048 228.279 76.0425 227.018M116.534 195.476C116.517 195.185 116.894 195.139 117.036 195.339C118.556 197.49 119.187 200.371 121.854 201.483C123.185 202.038 124.683 201.941 125.86 202.878C126.646 203.505 127.249 204.495 126.659 205.445C126.468 205.752 125.935 205.905 125.677 205.572C125.3 205.086 125.1 204.505 124.588 204.141C123.865 203.627 122.891 203.595 122.063 203.354C120.991 203.042 120.046 202.496 119.273 201.684M141.927 159.6C142.084 159.52 142.234 159.571 142.335 159.707C142.478 159.901 142.46 160.089 142.285 160.222C142.519 160.703 142.795 161.906 142.835 162.082C142.995 162.792 143.165 163.498 143.343 164.203C143.703 165.626 144.017 167.06 144.377 168.484C144.758 169.992 145.213 171.485 145.718 172.956C145.751 173.052 145.787 173.149 145.824 173.247L145.882 173.397L145.896 173.374C145.999 173.211 146.213 173.325 146.187 173.497C146.164 173.654 146.132 173.81 146.106 173.968L146.158 174.108C146.489 175.002 146.716 175.944 146.109 176.732C145.882 177.027 145.632 177.202 145.321 177.254C144.822 178.906 144.196 180.528 143.526 182.085L143.329 182.54C142.343 184.812 141.292 187.054 139.722 188.988C138.008 191.1 135.65 192.542 134.157 194.856C133.462 195.933 132.979 197.065 132.587 198.28L132.439 198.742C132.161 199.601 131.839 200.435 131.036 200.939C130.78 201.1 130.396 201.049 130.189 200.829C128.543 199.08 130.267 195.813 131.26 194.119C132.64 191.763 134.638 190.256 136.638 188.479C138.794 186.563 140.17 184.001 141.5 181.476C142.315 179.93 143.102 178.35 143.93 176.796C143.065 176.028 142.788 174.502 142.495 173.442L142.468 173.347C141.983 171.648 141.598 169.906 141.355 168.155C141.121 166.473 141.023 164.814 141.085 163.122L141.103 162.691M145.145 167.609C144.954 167.346 145.27 167.048 145.532 167.103C147.127 167.434 148.687 168.403 150.118 169.187L150.271 169.271C151.413 169.89 152.563 170.648 153.163 171.85C153.816 173.157 153.762 174.662 153.673 176.081L153.664 176.214C153.555 177.917 153.538 179.687 153.179 181.359C152.995 182.215 152.224 182.456 151.564 182.253C150.779 184.743 148.573 186.578 146.962 188.542C144.908 191.047 145.295 194.429 145.509 197.446C145.596 198.667 144.084 199.015 143.304 198.363L141.509 196.865C141.21 196.615 140.911 196.365 140.614 196.113C140.359 195.898 140.106 195.68 139.855 195.46L139.481 195.128C139.315 194.979 138.582 194.157 138.368 194.123C137.849 194.04 136.617 195.414 136.195 195.844L136.141 195.898C135.347 196.68 134.63 197.521 133.962 198.414C133.839 198.577 133.598 198.441 133.686 198.252C134.285 196.964 134.981 195.732 135.808 194.58L135.975 194.35C136.525 193.606 137.263 192.291 138.234 192.071C139.419 191.803 140.603 192.997 141.465 193.66L141.52 193.701C141.93 194.01 142.336 194.325 142.741 194.642C142.699 192.396 142.981 190.126 144.136 188.191C144.95 186.826 146.169 185.815 147.213 184.642C148.375 183.335 148.982 181.73 150.034 180.37C150.169 180.195 150.356 180.1 150.558 180.07C150.599 178.977 150.759 177.872 150.883 176.79L150.919 176.467C151.044 175.291 151.34 173.855 150.767 172.754C150.226 171.715 148.984 170.981 148.064 170.275L147.313 169.69M93.3847 155.18C92.9046 155.459 92.4558 155.806 92.0486 156.24C90.7668 157.605 89.8505 159.305 88.9586 160.94C88.4785 161.82 88.0156 162.71 87.5315 163.589C87.321 163.971 87.1044 164.349 86.8855 164.726C86.7843 164.9 86.4836 165.246 86.3345 165.459C86.5001 165.692 86.6714 165.921 86.8461 166.148C86.9127 166.235 91.5106 171.265 93.1133 173.234C95.5674 176.25 97.7611 179.435 99.6366 182.845C101.473 186.184 102.871 189.719 104.572 193.122C105.424 194.826 106.375 196.518 107.587 197.992C107.634 198.05 107.683 198.104 107.731 198.161C108.194 196.906 109.379 195.562 109.961 194.79L110.016 194.717C111.336 192.929 112.731 191.196 114.156 189.491C115.457 187.935 116.791 186.412 118.158 184.914L118.672 184.354C119.624 183.321 120.834 181.775 122.228 181.037C122.078 180.769 121.906 180.505 121.707 180.244C120.401 178.53 118.555 177.286 116.733 176.163L115.551 175.441C111.098 172.716 106.714 169.864 102.848 166.322C100.803 164.448 98.7855 162.486 97.0663 160.3L96.4582 159.527M100.815 153.831C98.7298 154.006 96.4778 153.965 94.5506 154.647C96.2639 156.274 97.8924 158.03 99.5654 159.684C99.7142 158.566 100.019 157.461 100.276 156.37" />
<path fill-rule="evenodd" clip-rule="evenodd" d="M125.042 22.0665C129.984 21.0681 135.059 20.447 140.106 20.6339L140.495 20.6491C144.292 20.801 149.101 21.1371 152.414 23.3475C152.605 23.1561 152.911 23.0578 153.189 23.1906C157.126 25.0716 161.455 26.4316 165.6 27.783C169.726 29.1277 174.006 30.0155 178.331 30.3733C179.958 30.508 181.35 32.2666 180.32 33.844C180.075 34.2199 179.836 34.5996 179.599 34.9802C179.996 34.9387 180.394 34.8959 180.791 34.8557C182.1 34.7238 183.407 36.1218 183.33 37.3971C183.281 38.1993 183.195 38.9919 183.067 39.7751C183.565 39.7646 184.061 39.8394 184.539 40.0419C186.963 41.0666 186.794 43.9567 186.613 46.1556C186.362 49.207 185.222 52.4391 183.105 54.7229C184.685 56.3662 185.804 58.3286 186.472 60.6594C186.956 62.3613 187.225 64.1741 187.092 65.9458L187.05 66.4762C186.885 68.3988 186.558 70.5274 185.177 71.9105C184.467 72.6236 183.594 72.8834 182.761 72.801C183.264 77.2318 183.587 81.6878 183.891 86.128L184.034 88.2503C184.712 98.5125 185.221 108.842 185.088 119.121C184.964 128.727 183.068 138.051 177.183 145.851C171.822 152.953 164.126 158.189 155.42 160.179C150.728 161.254 145.938 161.33 141.189 160.645C138.887 160.312 136.569 159.802 134.385 158.997C131.966 158.103 130.228 156.788 128.601 154.817C127.831 153.882 128.201 151.892 129.734 152.079C132.052 152.36 134.168 152.699 136.39 153.385L136.708 153.486C138.922 154.196 141.214 154.725 143.528 154.95C148.268 155.409 153.08 154.947 157.62 153.508C165.013 151.163 171.379 145.936 175.46 139.37C180.304 131.586 180.852 122.75 180.782 113.799C180.707 103.978 180.388 94.1513 179.867 84.3402L179.778 82.7052C179.503 77.6564 179.237 72.6045 179.003 67.5526C178.93 65.968 178.819 64.3706 178.62 62.7891C176.793 61.7179 175.156 60.241 174.089 58.4186C171.946 59.3061 169.692 59.9463 167.618 60.4565C162.814 61.6393 157.826 61.9264 152.936 61.1858C151.617 61.7312 150.272 62.2107 148.906 62.6234C148.537 62.7872 148.168 62.9482 147.799 63.1061C144.506 64.5164 141.166 65.7113 137.69 66.586L136.836 66.7992C135.007 67.2506 133.02 67.6951 131.073 67.8347C130.754 67.9583 130.408 68.0629 130.031 68.1548C128.259 68.5858 126.419 68.7221 124.602 68.57C122.832 68.421 121.553 66.6304 122.528 64.9538C123.24 63.7304 123.959 62.5102 124.684 61.2932C122.161 62.3454 119.556 63.2202 116.928 63.9618C114.275 64.7098 111.584 65.3404 108.889 65.9204C107.449 66.2279 106.002 66.5004 104.565 66.8078C103.536 67.0265 101.956 67.1406 101.117 67.8189C100.189 68.5636 99.9265 70.3004 99.5747 71.3717C99.1125 72.763 98.6788 74.1607 98.283 75.5742C97.495 78.3949 96.8492 81.2568 96.3489 84.1472C95.8487 87.0408 95.5128 89.9629 95.326 92.8946C95.1395 95.823 95.2215 98.7705 94.9211 101.686C94.7593 103.233 93.1006 104.028 91.8754 102.948C91.7317 102.821 91.5868 102.693 91.4434 102.563L91.2296 102.368C90.1813 101.417 89.165 100.409 88.3264 99.2744C88.1744 99.0652 88.0288 98.8465 87.8926 98.6247C87.8705 98.6247 87.8515 98.6184 87.8293 98.6025L87.5968 98.4273C85.0362 96.5195 80.7584 94.0321 78.2617 97.2017C77.4661 98.2114 77.0588 99.4971 76.7207 100.737L76.1275 102.957C75.7438 104.407 75.3827 105.864 75.1714 107.347C74.6934 110.668 74.934 114.497 77.2169 117.159C78.1288 118.224 79.3856 118.984 80.7879 119.184C81.5702 119.292 82.3427 119.159 83.1183 119.061C83.9067 118.962 84.6662 119.121 85.4548 119.045C86.7085 118.921 87.2563 120.423 86.7877 121.368C86.5344 121.875 86.2365 122.312 85.8981 122.683C86.17 122.918 86.4299 123.171 86.68 123.437C87.4209 123.675 88.0854 124.185 88.5828 124.86C88.9849 125.405 89.1935 125.998 89.2287 126.623C89.2727 126.778 89.3107 126.936 89.3458 127.098L90.025 128.201C90.1744 128.443 90.3233 128.683 90.4726 128.917C92.2012 131.643 94.1201 133.95 96.5041 136.124C98.7994 138.216 101.291 140.089 103.447 142.333L103.701 142.599C105.711 144.72 107.83 147.287 107.044 150.37C106.841 151.163 105.736 151.733 105.014 151.197C102.694 149.473 101.525 146.741 99.5561 144.65C97.5295 142.494 95.2848 140.558 93.2526 138.409C91.3305 136.381 89.814 134.083 88.6714 131.554C88.2152 132.058 87.5507 132.416 86.6294 132.555C85.0464 132.793 83.5707 131.865 82.8809 130.492C82.4373 130.689 81.9849 130.866 81.5287 131.006C79.1289 131.741 77.619 129.069 78.5245 127.095C79.0086 126.036 79.6133 125.117 80.3639 124.344C78.0176 124.02 75.6305 122.807 74.0887 121.292C70.2201 117.485 69.6883 111.765 70.5589 106.678C71.0211 103.981 71.8186 101.252 72.8542 98.7198C73.0344 98.2792 73.2278 97.8355 73.4396 97.3982C73.3225 97.395 73.2022 97.3443 73.1262 97.246C72.4265 96.2889 71.5752 95.5061 71.0556 94.4348C70.5776 93.4524 70.046 92.4572 69.669 91.4335C68.8936 89.3386 68.5137 86.9743 68.2604 84.7589C67.738 80.2236 67.9403 75.7168 68.634 71.21C69.8146 63.5339 72.6665 56.1881 76.8681 49.7423C76.6393 49.622 76.4201 49.4767 76.2158 49.3049L76.1149 49.2168L75.9509 49.0685C74.7519 47.9824 74.8554 45.9467 75.9509 44.8466L76.2968 44.4995C76.7349 44.0638 77.1127 43.7186 77.8204 43.2442C77.9249 43.1742 78.0316 43.1083 78.1395 43.0468C77.7691 42.3616 77.6406 41.5604 77.8986 40.6764C78.7977 37.5971 83.2238 37.7062 86.0291 39.049C89.1327 36.2762 92.5741 33.869 96.3043 31.9199C105.188 27.28 115.234 24.0441 125.042 22.0665ZM79.12 103.17C80.779 102.628 82.9825 103.765 84.4736 104.45C86.3637 105.318 87.9721 106.602 89.5297 107.958C90.3054 108.637 90.4444 109.746 90.2516 110.693C90.2322 110.789 90.2136 110.887 90.1911 110.985C89.9853 111.996 88.8582 112.792 87.8609 112.763C85.7745 112.706 84.7807 110.903 83.5995 109.375C83.4605 109.622 83.2864 109.85 83.0708 110.022L82.9252 110.136C82.4351 110.509 81.8948 110.808 81.2472 110.779C80.7881 110.757 80.3484 110.64 79.9428 110.427C78.9297 109.892 78.4836 108.58 78.7588 107.511C78.9297 106.84 79.3223 106.313 79.8352 105.949L79.644 105.818C79.2349 105.533 78.8618 105.233 78.5711 104.789L78.5055 104.684H78.5308C78.2142 104.139 78.4203 103.398 79.12 103.17Z"/>
<path fill-rule="evenodd" clip-rule="evenodd" d="M147.839 124.198C148.293 123.406 149.339 122.673 150.296 122.785C154.583 123.289 154.576 128.502 152.921 131.544C151.453 134.242 148.415 135.826 145.375 135.595C142.181 135.352 139.459 133.469 138.262 130.472C137.47 128.491 137.104 124.832 139.211 123.5C139.25 123.475 139.314 123.481 139.345 123.517C140.356 124.696 140.395 126.465 141.28 127.777C142.102 128.997 143.38 130.005 144.877 130.161C145.995 130.277 147.127 129.873 147.564 128.866C147.8 128.322 147.774 128.026 147.685 127.651L147.604 127.326C147.324 126.185 147.198 125.317 147.839 124.198ZM148.985 101.34C151.221 102.703 154.628 105.881 152.223 109.259C149.391 112.239 145.315 108.823 143.306 107.278C141.443 106.081 139.351 109.16 141.079 110.558C155.595 121.335 161.485 101.696 150.116 99.7373C148.864 99.5215 148.399 100.918 148.985 101.34ZM125.374 91.9942C126.746 89.9295 129.879 90.2335 130.635 92.6837C131.044 94.0109 130.479 95.204 130.508 96.5294C130.532 97.6491 130.459 98.8968 130.117 99.9811C129.336 102.454 127.119 104.2 124.495 104.128C121.88 104.056 119.577 102.396 118.481 100.058C117.382 97.7118 117.615 95.2832 118.417 92.8972C118.456 92.7826 118.606 92.7271 118.696 92.8236C119.644 93.8343 120.339 94.9014 121.057 96.0333L121.794 97.1934C122.356 98.067 123.174 99.1829 124.225 99.1128L124.382 99.0972C124.674 99.0721 124.63 99.1302 124.855 98.7311C124.959 98.5464 124.94 98.2032 124.99 97.9852L125.008 97.9116V97.9116L124.998 97.8719C124.976 97.7664 124.954 97.5675 124.936 97.2223L124.932 97.1461C124.856 95.5318 124.401 93.4572 125.374 91.9942ZM160.162 93.3689C159.916 90.7281 163.619 90.1416 164.85 92.0957C165.492 93.1147 165.679 94.3947 165.82 95.6075L165.887 96.1831C166.033 97.4287 166.09 98.7244 165.551 99.8863C164.702 101.716 162.855 102.684 160.863 102.53C158.961 102.384 157.225 101.278 156.31 99.5986C155.494 98.1003 154.683 95.175 155.674 93.6123C155.734 93.5176 155.853 93.5055 155.935 93.5785C156.872 94.412 157.024 95.9322 157.581 97.018C158.155 98.138 159.026 99.2295 160.345 99.3996C161.608 99.5624 162.09 98.8708 161.768 97.6638C161.353 96.1056 160.319 95.0456 160.162 93.3689ZM126.374 76.294L126.979 76.0615C129.054 75.2757 131.902 74.3673 133.589 76.0589C134.629 77.102 134.827 78.6385 134.084 79.9114C133.185 81.4533 131.571 81.4914 130.012 81.7185C128.239 81.9768 126.436 82.4679 124.786 83.1681C122.927 83.957 121.201 84.9404 119.511 86.0387C117.904 87.0824 116.303 88.7882 114.38 89.1098C114.302 89.1228 114.213 89.089 114.192 89.0026C113.755 87.1171 114.969 85.2617 116.052 83.7907C117.363 82.0098 118.951 80.548 120.725 79.2374C122.438 77.9722 124.396 77.058 126.374 76.294ZM164.057 82.9976L164.242 82.9651C165.5 82.7551 166.64 82.8034 167.588 83.8025C168.312 84.5647 168.591 85.5526 168.246 86.5603C167.928 87.49 167.216 88.4345 166.183 88.6293C162.695 89.2872 158.832 89.1786 155.327 88.6803C153.723 88.4523 152.105 88.1732 150.543 87.7332L149.824 87.5242C148.52 87.1507 147.027 86.7605 146.08 85.7987C145.739 85.4531 145.936 84.9584 146.343 84.7984C147.996 84.1493 150.261 84.4946 152.024 84.4439C154.074 84.3851 156.127 84.231 158.168 84.0187C160.162 83.8108 162.091 83.3592 164.057 82.9976Z" />
</svg>
