<svg width="157" height="27" viewBox="0 0 157 27" fill="none" xmlns="http://www.w3.org/2000/svg">
<path d="M20.3409 1.72726H16.8636V18.8182H16.6477L4.80682 1.72726H1.55682V25H5.06819V7.93181H5.2841L17.1136 25H20.3409V1.72726Z" stroke="black" stroke-width="2" mask="url(#path-1-outside-1)"/>
<path d="M30.9244 25.3409C34.1063 25.3409 35.3563 23.3977 35.9699 22.2841H36.254V25H39.5722V7.54545H36.1744V10.375H35.9699C35.3563 9.29545 34.1972 7.31817 30.9472 7.31817C26.7313 7.31817 23.629 10.6477 23.629 16.3068C23.629 21.9545 26.6858 25.3409 30.9244 25.3409ZM31.6744 22.4432C28.6403 22.4432 27.0608 19.7727 27.0608 16.2727C27.0608 12.8068 28.6063 10.2045 31.6744 10.2045C34.6403 10.2045 36.2313 12.625 36.2313 16.2727C36.2313 19.9432 34.6063 22.4432 31.6744 22.4432Z" stroke="black" stroke-width="2" mask="url(#path-1-outside-1)"/>
<path d="M43.6216 25H47.0193V14.2386C47.0193 11.8864 48.6671 10.25 50.5989 10.25C52.4852 10.25 53.792 11.5 53.792 13.3977V25H57.1784V13.875C57.1784 11.7727 58.4625 10.25 60.6784 10.25C62.4739 10.25 63.9511 11.25 63.9511 13.6136V25H67.3489V13.2954C67.3489 9.30681 65.1216 7.31817 61.9625 7.31817C59.4511 7.31817 57.5648 8.52272 56.7239 10.3864H56.542C55.7807 8.47727 54.1784 7.31817 51.8489 7.31817C49.5421 7.31817 47.8261 8.4659 47.0989 10.3864H46.883V7.54545H43.6216V25Z" stroke="black" stroke-width="2" mask="url(#path-1-outside-1)"/>
<path d="M73.3415 25.2159C74.5801 25.2159 75.6142 24.2045 75.6142 22.9432C75.6142 21.7045 74.5801 20.6818 73.3415 20.6818C72.0915 20.6818 71.0688 21.7045 71.0688 22.9432C71.0688 24.2045 72.0915 25.2159 73.3415 25.2159Z" stroke="black" stroke-width="2" mask="url(#path-1-outside-1)"/>
<path d="M86.7176 25.3523C90.8426 25.3523 93.5131 22.875 93.8881 19.4773H90.5813C90.1494 21.3636 88.6835 22.4773 86.7403 22.4773C83.8653 22.4773 82.0131 20.0795 82.0131 16.2727C82.0131 12.5341 83.8994 10.1818 86.7403 10.1818C88.8994 10.1818 90.2176 11.5454 90.5813 13.1818H93.8881C93.5244 9.65908 90.6494 7.31817 86.6835 7.31817C81.7631 7.31817 78.5813 11.0227 78.5813 16.3523C78.5813 21.6136 81.6494 25.3523 86.7176 25.3523Z" stroke="black" stroke-width="2" mask="url(#path-1-outside-1)"/>
<path d="M100.119 14.6364C100.119 11.8523 101.881 10.2614 104.301 10.2614C106.642 10.2614 108.04 11.75 108.04 14.3068V25H111.438V13.8977C111.438 9.54545 109.051 7.31817 105.46 7.31817C102.744 7.31817 101.108 8.49999 100.29 10.3864H100.074V1.72726H96.7216V25H100.119V14.6364Z" stroke="black" stroke-width="2" mask="url(#path-1-outside-1)"/>
<path d="M122.694 25.3523C126.501 25.3523 129.194 23.4773 129.967 20.6364L126.751 20.0568C126.138 21.7045 124.66 22.5454 122.728 22.5454C119.819 22.5454 117.865 20.6591 117.774 17.2954H130.183V16.0909C130.183 9.78408 126.41 7.31817 122.456 7.31817C117.592 7.31817 114.388 11.0227 114.388 16.3864C114.388 21.8068 117.547 25.3523 122.694 25.3523ZM117.785 14.75C117.922 12.2727 119.717 10.125 122.478 10.125C125.115 10.125 126.842 12.0795 126.853 14.75H117.785Z" stroke="black" stroke-width="2" mask="url(#path-1-outside-1)"/>
<path d="M140.676 25.3523C144.482 25.3523 147.176 23.4773 147.948 20.6364L144.732 20.0568C144.119 21.7045 142.641 22.5454 140.71 22.5454C137.801 22.5454 135.846 20.6591 135.755 17.2954H148.164V16.0909C148.164 9.78408 144.391 7.31817 140.437 7.31817C135.573 7.31817 132.369 11.0227 132.369 16.3864C132.369 21.8068 135.528 25.3523 140.676 25.3523ZM135.766 14.75C135.903 12.2727 137.698 10.125 140.46 10.125C143.096 10.125 144.823 12.0795 144.835 14.75H135.766Z" stroke="black" stroke-width="2" mask="url(#path-1-outside-1)"/>
<path d="M153.373 25.2159C154.611 25.2159 155.645 24.2045 155.645 22.9432C155.645 21.7045 154.611 20.6818 153.373 20.6818C152.123 20.6818 151.1 21.7045 151.1 22.9432C151.1 24.2045 152.123 25.2159 153.373 25.2159Z" stroke="black" stroke-width="2" mask="url(#path-1-outside-1)"/>
</svg>
