<svg width="312" height="344" viewBox="0 0 312 344" fill="none" xmlns="http://www.w3.org/2000/svg">
<g filter="url(#filter0_d)">
<path fill-rule="evenodd" clip-rule="evenodd" d="M119.454 125.329C120.717 122.143 124.984 123.381 124.508 126.728C124.223 128.733 123.13 130.851 122.148 132.608C121.348 134.039 120.436 135.435 119.199 136.507C121.401 138.57 123.686 140.557 126.029 142.445C128.586 144.504 131.275 146.402 134.054 148.146C136.49 149.676 139.037 151.031 141.334 152.777C143.47 154.4 145.416 156.352 146.406 158.9C147.461 161.613 147.002 164.415 146.226 167.126L146.136 167.433C145.343 170.119 143.969 173.357 145.874 175.888C146.844 177.177 148.253 178.089 149.47 179.119C150.552 180.035 151.567 181.03 152.499 182.1C154.529 184.431 156.181 187.054 157.223 189.977L157.316 190.243C158.209 192.83 158.862 196 157.655 198.54C157.309 199.269 156.192 199.032 155.998 198.323C155.559 196.716 155.582 195.034 155.215 193.405C154.832 191.711 154.195 190.103 153.364 188.581C151.755 185.638 149.576 183.123 147.002 180.998L146.231 180.368C144.223 178.713 142.378 176.957 141.97 174.218C141.534 171.287 142.703 168.495 143.455 165.72C143.979 163.787 144.15 161.934 143.584 160.187C142.892 161.321 141.948 162.397 141.202 163.357C139.715 165.27 138.215 167.171 136.718 169.075C135.183 171.028 133.687 173.012 132.261 175.047C131.624 175.958 130.993 176.874 130.364 177.79C129.892 178.479 129.232 179.168 128.717 179.871C128.842 180.247 128.833 180.68 128.606 180.988C125.873 184.696 121.986 176.959 120.972 175.004C118.907 171.023 117.37 166.793 115.299 162.813C113.152 158.687 110.708 154.671 107.984 150.905C106.336 148.626 104.489 146.486 102.982 144.136C99.4302 147.37 94.757 149.538 90.4645 151.504C85.7483 153.664 80.8486 155.429 76.0132 157.302L74.5848 157.86C66.2532 161.125 57.718 164.713 50.7928 170.514C42.6551 177.331 37.8408 186.831 34.2568 196.67C30.1309 207.996 26.7176 219.628 23.5358 231.253C21.9075 237.2 20.3626 243.175 18.9102 249.169C17.6303 254.449 16.5694 259.782 15.0878 265.008C18.0926 264.902 21.5196 266.07 24.085 266.407C35.7767 267.944 47.3111 270.395 58.3495 274.637C59.713 275.161 60.1075 276.529 59.8106 277.637C60.5969 277.414 61.3826 277.188 62.1689 276.967C61.3074 275.641 61.7186 273.271 61.7863 271.801L61.7905 271.7C61.8601 269.742 62.0716 267.782 62.2088 265.827C62.4699 262.102 62.8099 258.403 63.262 254.699L63.3774 253.772C63.8897 249.742 64.2684 245.688 64.8274 241.665L64.8935 241.204C64.6254 240.175 64.3133 239.158 63.9858 238.146C63.1129 235.449 61.8809 232.911 60.8013 230.299C60.6739 229.991 61.1101 229.815 61.3139 229.999C63.1424 231.651 64.5948 233.747 65.7616 235.939C65.7818 235.836 65.7997 235.732 65.8208 235.629L65.954 234.97C66.2823 233.365 66.6817 231.676 67.6621 230.374C67.7665 230.236 67.973 230.207 68.0718 230.374C69.0101 231.969 69.1151 233.989 69.2594 235.803C69.4227 237.856 69.4433 239.935 69.4144 241.993C69.3582 246.016 69.0758 250.05 68.8509 254.067C68.6303 258.013 68.197 261.91 67.6385 265.818L67.5324 266.551C67.2594 268.411 67.0359 270.294 66.6758 272.141L66.5741 272.644C66.3816 273.56 66.2632 274.852 65.88 275.925C75.7388 273.163 85.6128 270.465 95.5055 267.813C102.655 265.897 109.813 264.009 116.967 262.109C117.345 261.426 117.815 260.787 118.402 260.217C120.335 258.337 122.896 257.498 125.246 258.945C125.437 259.063 125.453 259.364 125.246 259.478C124.795 259.725 124.344 259.978 123.901 260.242L128.197 259.074C131.408 258.2 134.658 257.108 137.944 256.498C143.998 253.498 150.508 251.326 156.885 249.18L157.637 248.925C160.902 247.807 164.279 246.555 167.652 245.935C170.122 245.482 173.021 246.029 174.014 248.57C175.271 249.402 176.454 250.38 177.596 251.342C178.421 252.037 179.212 252.776 180.016 253.496L180.165 253.626C180.822 254.2 181.343 254.583 181.505 255.496C181.588 255.967 181.29 256.604 180.711 256.541C178.941 256.351 177.501 254.29 176.3 253.059C175.373 252.108 174.438 251.124 173.591 250.078C173.097 250.348 172.421 250.3 172.107 249.702C170.478 246.604 166.015 248.751 163.545 249.486L160.008 250.537C158.24 251.064 156.472 251.593 154.707 252.131C149.856 253.611 145.029 255.266 140.135 256.625C140.573 257.109 140.512 257.968 139.681 258.296C135.849 259.806 131.646 260.586 127.666 261.622C125.153 262.277 122.641 262.936 120.13 263.598C119.7 264.298 119.39 265.091 119.26 266.013C118.781 269.405 119.705 273.318 120.605 276.598L120.741 277.088C121.481 279.725 122.569 282.958 124.835 284.623C125.388 285.03 126.092 285.312 126.802 285.376C131.237 283.083 135.671 280.791 140.109 278.503C140.931 278.079 141.69 278.653 141.875 279.335C143.439 279.077 145 278.671 146.422 278.186C148.811 277.371 150.676 275.817 152.916 274.743C157.25 272.663 161.675 275.217 165.555 277.159L166.449 277.6C168.189 278.448 171.809 280.077 172.644 277.758C173.451 275.515 170.898 273.117 169.25 272.107C167.284 270.903 164.996 270.259 162.775 269.723C161.506 269.416 160.223 269.166 158.931 268.983C157.466 268.776 155.953 268.807 154.543 268.33C153.842 268.094 153.734 266.975 154.543 266.791C156.714 266.294 159.305 266.836 161.571 267.389L162.755 267.682C165.038 268.245 167.343 268.951 169.422 270.073C170.934 270.889 172.53 272.129 173.572 273.647C174.478 272.803 175.604 272.831 176.778 273.145L177.415 273.322C178.467 273.615 179.32 273.817 180.343 273.614C180.48 272.866 180.619 272.118 180.767 271.37C182.226 264.015 183.826 256.688 185.591 249.4C188.635 236.83 192.158 224.398 196.13 212.094L196.529 210.863C197.445 208.049 198.182 204.983 199.659 202.397C201.056 199.952 203.294 198.544 205.952 197.798C208.97 196.952 212.14 196.509 215.218 195.938C215.905 195.81 216.593 195.689 217.281 195.564C216.7 194.511 216.266 193.315 215.876 192.398L215.807 192.239C214.968 190.318 214.215 188.362 213.487 186.396L212.943 184.918C211.629 181.359 210.273 177.859 208.425 174.53C206.481 171.027 203.901 168.163 200.685 165.792C194.129 160.959 186.226 158.494 179.867 153.328C179.606 153.116 179.94 152.755 180.205 152.889C184.499 155.055 189.134 156.529 193.601 158.293L194.482 158.642C198.012 160.048 201.597 161.578 204.652 163.853C208.058 166.391 210.741 169.542 212.758 173.289C214.745 176.983 216.016 181.118 217.419 185.063L217.794 186.114C218.359 187.691 218.943 189.262 219.613 190.797C220.144 192.014 221.136 193.405 221.586 194.796C222.82 194.581 224.052 194.366 225.287 194.159C252.023 189.675 279.058 187.041 306.153 186.271C307.213 186.24 307.761 187.256 307.605 188.185C305.004 203.628 302.694 219.123 300.158 234.577C299.052 241.322 297.923 248.062 296.768 254.799C296.183 258.212 295.506 261.612 294.952 265.03C294.504 267.79 294.179 270.572 293.411 273.268C292.722 275.686 291.665 278.017 289.928 279.862C288.056 281.85 285.444 282.812 282.814 283.267C276.137 284.421 269.289 284.892 262.559 285.661L226.725 289.756C227.249 294.536 227.288 299.242 227.047 304.078L226.911 306.719C226.799 308.842 226.665 310.969 226.361 313.07C225.98 315.707 224.78 317.939 223.011 319.908C221.387 321.717 219.414 323.26 217.494 324.738C215.502 326.273 213.444 327.755 211.102 328.705L210.798 328.826C208.743 329.632 204.888 330.879 202.079 330.423C202.447 332.271 203.157 334.257 202.527 336.085C202.235 336.934 201.13 337.358 200.453 336.635C199.111 335.204 199.007 333.313 198.689 331.445C198.358 329.502 198.073 327.552 197.82 325.597C197.33 321.816 196.949 318.002 196.833 314.189C196.713 310.274 196.759 306.354 196.969 302.443C197.077 300.435 197.211 298.428 197.465 296.433C197.573 295.582 197.684 294.73 197.811 293.881C197.857 293.572 197.908 293.263 197.963 292.956L194.747 293.32C189.815 293.873 184.881 294.373 179.914 294.45C179.326 294.459 178.874 294.19 178.578 293.799C178.263 294.314 177.714 294.683 176.928 294.68C169.993 294.654 163.534 292.376 157.225 289.692C154.046 288.338 150.915 286.873 147.731 285.531C144.758 284.278 141.581 283.384 138.68 281.973L131.058 285.989C131.002 286.186 130.93 286.373 130.854 286.529C130.358 287.547 129.379 288.099 128.38 288.514C127.421 288.914 126.428 289.038 125.46 288.937C119.679 291.98 113.897 295.019 108.111 298.052L102.324 301.082C90.7939 307.111 79.3092 313.24 67.7064 319.128L66.8522 319.56C62.8446 321.578 58.5412 323.624 54.0937 325.151C54.0145 326.281 54.0645 327.381 54.1588 328.578L54.1815 328.838C54.3141 330.252 54.5985 332.024 53.4689 333.031C52.8813 333.555 51.8317 333.557 51.4322 332.767C50.7071 331.336 51.3581 329.079 51.5878 327.524C51.6693 326.971 51.7687 326.402 51.9156 325.85C46.8169 327.375 41.5638 328.114 36.3753 327.258C31.3236 326.425 27.4111 323.229 24.257 319.319C20.9281 315.194 18.5627 310.386 17.2935 305.232C15.8491 299.367 15.7548 293.31 15.7887 287.302C15.8247 280.905 16.0603 274.476 16.835 268.122C15.9863 267.922 15.0449 267.748 14.1872 267.808C13.7624 268.491 12.9383 268.778 12.1936 268.69C10.5743 270.483 14.6817 272.317 15.9943 272.776C16.4501 272.935 16.4013 273.679 15.8756 273.656L15.5444 273.64C13.5162 273.532 11.4208 273.184 10.2283 271.291C9.2727 269.774 9.5598 267.976 10.699 266.739C11.4514 259.594 13.2501 252.636 14.9242 245.666C16.567 238.825 18.394 232.028 20.3305 225.265L21.1986 222.238C24.2475 211.634 27.4344 200.944 31.6402 190.761C33.7403 185.677 36.1596 180.686 39.4391 176.252C42.4959 172.119 46.105 168.583 50.2534 165.563C57.9872 159.931 67.0619 156.529 75.9781 153.287L76.3773 153.142C80.9979 151.464 85.6071 149.765 90.1751 147.946C94.2149 146.337 98.0852 144.298 102.106 142.665C101.975 142.427 101.849 142.186 101.728 141.943L101.654 142.006C101.641 142.016 101.628 142.026 101.614 142.035C101.21 142.316 100.615 142.178 100.281 141.862C99.3405 140.971 99.6591 139.981 100.287 139.056L100.369 138.938C101.137 137.858 101.822 136.715 102.531 135.595L102.975 134.895C104.165 133.024 105.416 131.14 107.002 129.594C107.737 128.877 108.542 128.341 109.394 127.942C109.321 127.787 109.96 127.471 110.141 127.63C112.842 126.637 115.949 126.845 118.893 127.119M224.991 289.954L221.237 290.382C217.106 290.854 212.974 291.311 208.841 291.763L199.865 292.743C199.842 293.257 199.779 293.759 199.768 294.147C199.71 296.148 199.666 298.15 199.624 300.152C199.541 304.165 199.632 308.181 199.895 312.185C200.15 316.066 200.486 319.947 201.008 323.801L201.115 324.571L201.177 324.976C201.602 325.018 202.021 325.221 202.368 325.638C203.128 326.549 205.877 325.664 206.951 325.28C208.716 324.649 210.379 323.583 211.913 322.514C213.412 321.47 214.761 320.252 216.057 318.97L217.118 317.916C218.173 316.863 219.23 315.741 219.876 314.417C220.753 312.62 220.866 310.415 221.123 308.458C221.44 306.052 221.817 303.646 222.215 301.251M115.998 264.692L115.608 264.795C101.461 268.57 87.3358 272.457 73.1456 276.066C66.1233 277.852 59.0676 279.508 52.0366 281.26L50.8983 281.546C45.3516 282.954 39.7383 284.649 35.4907 288.689C35.3339 288.838 35.1063 288.61 35.2539 288.452C39.8316 283.557 46.3423 281.485 52.5935 279.689C53.749 279.357 54.906 279.033 56.0619 278.703C47.5603 275.659 38.9245 273.01 30.0895 271.122C27.8144 270.635 25.5129 270.278 23.2397 269.79C21.6543 269.449 20.106 268.957 18.5374 268.548L17.3035 268.236L17.2871 272.153C17.2666 277.7 17.2764 283.243 17.5582 288.79L17.6115 289.817C17.9403 295.99 18.4534 302.29 20.6344 308.111C22.4066 312.84 25.2315 317.296 28.9256 320.74C30.7949 322.483 32.8045 323.84 35.2887 324.51C37.5953 325.132 40.0119 325.205 42.3831 325.039C53.7565 324.242 63.8807 318.037 73.7603 312.899C89.92 304.496 106.081 296.097 122.258 287.726C121.82 287.425 121.408 287.079 121.034 286.691C118.865 284.441 117.721 281.361 116.969 278.378C116.169 275.202 115.691 271.799 115.635 268.521M136.58 290.97C136.723 290.892 136.889 290.989 136.895 291.151C136.945 292.392 136.262 293.616 135.752 294.733L135.698 294.853C135.079 296.237 134.4 297.604 133.698 298.948C132.295 301.635 130.838 304.293 129.316 306.913C126.257 312.184 122.857 317.233 118.838 321.823C117.93 322.86 116.437 321.531 117.02 320.414C119.828 315.033 123.102 309.952 126.473 304.915C128.16 302.393 129.846 299.868 131.55 297.358C132.26 296.31 132.98 295.266 133.72 294.238L134.166 293.624M304.361 189.353C290.165 189.783 275.985 190.713 261.857 192.17C248.717 193.525 235.625 195.329 222.608 197.578C219.889 198.048 217.173 198.537 214.461 199.045L212.834 199.352C210.121 199.869 206.807 200.082 204.392 201.537C201.846 203.071 201.158 206.278 200.31 208.923C199.314 212.033 198.344 215.152 197.399 218.278C193.648 230.691 190.222 243.212 187.165 255.816C185.648 262.072 184.301 268.363 182.883 274.642C181.623 280.221 180.232 285.736 178.779 291.259C178.959 291.119 179.178 291.013 179.443 290.956C186.657 289.415 194.021 288.744 201.343 287.893L202.051 287.81C209.625 286.915 217.2 286.027 224.778 285.171L274.956 279.504C277.915 279.17 281.085 279.125 283.965 278.327C288.861 276.97 290.009 271.472 290.83 267.094L290.855 266.962C293.332 253.733 295.304 240.388 297.613 227.126M179.947 275.881C177.999 275.752 175.333 273.96 173.855 274.088C174.631 275.396 174.981 276.887 174.534 278.48C173.289 282.912 167.661 280.618 164.95 279.265C162.728 278.154 160.582 276.795 158.121 276.275C155.333 275.686 153.445 276.799 151.09 278.083C149.155 279.137 147.049 279.894 144.882 280.285C143.73 280.494 142.636 280.516 141.544 280.435C141.478 280.489 141.404 280.538 141.319 280.583L140.742 280.887C143.354 281.008 146.015 281.817 148.446 282.559C150.965 283.326 153.439 284.252 155.899 285.199L158.319 286.133C164.288 288.429 170.468 290.609 176.928 290.59C177.393 290.589 177.773 290.718 178.073 290.929M169.048 261.994C170.972 261.758 172.749 262.011 174.287 263.269C176.141 264.787 177.387 267.303 180.053 267.468C180.831 267.516 181.011 268.614 180.239 268.844C178.254 269.434 176.647 268.356 175.295 266.955L174.386 266.001C173.05 264.612 171.817 263.537 169.55 263.62C167.122 263.709 164.689 264.273 162.277 264.559C159.544 264.884 156.812 265.161 154.07 265.399C153.943 265.41 153.921 265.209 154.04 265.179L157.111 264.412M167.19 254.092L167.508 254.06C170.302 253.787 172.858 253.777 175.354 255.287L175.833 255.577C178.083 256.951 180.533 258.57 181.94 260.794C182.17 261.158 181.79 261.586 181.404 261.493C178.7 260.841 176.722 258.848 174.448 257.357C171.895 255.683 169.259 255.959 166.348 256.219C163.53 256.471 160.714 256.817 157.923 257.289C155.301 257.731 152.671 258.431 150.023 258.654L150.023 258.648C149.721 258.648 149.548 258.191 149.857 258.037C152.544 256.689 155.657 256.051 158.581 255.435M252.088 226.349C251.818 225.051 253.407 224.45 254.144 225.479L254.301 225.696C255.892 227.886 258.194 230.634 258.077 233.419C259.475 233.449 260.926 234.303 261.471 235.571C261.723 236.157 261.808 236.852 261.753 237.572C263.024 237.671 264.411 238.51 265.188 239.326C266.477 240.679 266.578 242.592 265.654 244.173C263.639 247.62 259.236 248.874 255.519 249.154L255.386 249.163C251.547 249.43 246.016 249.358 243.383 246.05C240.844 242.859 243.65 240.275 246.528 238.872C245.779 238.185 245.391 237.2 245.756 236.161C246.396 234.335 248.658 233.63 249.936 232.361C251.493 230.813 252.523 228.69 252.112 226.47M254.198 229.155C253.775 231.003 252.735 232.693 251.286 234.032C250.732 234.544 250.126 235 249.482 235.392L249.405 235.437C248.834 235.759 247.429 236.363 247.537 237.086C247.649 237.829 249.937 238.991 250.56 238.992C250.702 238.992 250.783 239.214 250.638 239.279C249.507 239.78 248.52 239.995 247.415 239.465C246.677 240.223 245.959 241.006 245.249 241.783C243.993 243.157 244.422 244.608 245.907 245.631C248.292 247.275 251.918 247.235 254.702 247.116C257.503 246.995 260.497 246.368 262.686 244.494L262.781 244.41C263.97 243.348 265.056 241.548 263.235 240.525C262.522 240.124 261.751 240.148 261.074 239.953C260.441 241.201 259.413 242.2 258.158 242.393C257.145 242.548 256.447 241.269 257.369 240.657L257.576 240.527C258.734 239.785 259.722 238.642 259.696 237.153C259.678 236.12 258.241 234.814 257.305 235.785L257.262 235.832C256.478 236.719 255.099 235.601 255.614 234.618L255.638 234.574M71.4932 177.767C71.4896 177.545 71.8005 177.462 71.9091 177.654C73.7275 180.867 74.678 184.805 75.6467 188.345C76.6612 192.054 77.4803 195.799 78.216 199.573C79.7062 207.213 80.5003 214.81 80.5541 222.598C80.5616 223.71 78.7581 224.005 78.5816 222.866C77.4104 215.291 76.2882 207.708 75.1079 200.135C74.5141 196.326 73.823 192.532 73.1616 188.735M89.495 183.363C89.3611 182.92 90.0031 182.772 90.1673 183.177C93.8165 192.174 95.0524 202.37 92.7095 211.861C92.351 213.313 90.2337 212.684 90.5041 211.25M136.566 175.369C136.547 175.037 136.976 174.985 137.138 175.213C138.867 177.66 139.584 180.937 142.618 182.202C144.132 182.833 145.837 182.723 147.175 183.79C148.069 184.503 148.755 185.629 148.084 186.709C147.867 187.058 147.261 187.233 146.967 186.854C146.538 186.301 146.311 185.64 145.728 185.225C144.906 184.641 143.798 184.605 142.855 184.33C141.636 183.976 140.562 183.354 139.682 182.431M165.453 134.557C165.631 134.466 165.802 134.524 165.916 134.679C166.079 134.899 166.059 135.114 165.86 135.265C166.126 135.812 166.441 137.181 166.485 137.38C166.668 138.188 166.861 138.991 167.064 139.794C167.473 141.412 167.831 143.044 168.24 144.663C168.674 146.379 169.19 148.077 169.765 149.751C169.803 149.859 169.843 149.97 169.886 150.082L169.952 150.252L169.968 150.226C170.085 150.04 170.328 150.17 170.299 150.366C170.272 150.545 170.236 150.723 170.206 150.901L170.266 151.061C170.643 152.078 170.9 153.149 170.21 154.047C169.952 154.382 169.668 154.581 169.314 154.64C168.746 156.519 168.034 158.364 167.271 160.135L167.048 160.653C165.926 163.237 164.73 165.788 162.944 167.989C160.994 170.391 158.312 172.031 156.614 174.664C155.823 175.888 155.274 177.176 154.827 178.559L154.659 179.084C154.343 180.062 153.977 181.01 153.064 181.584C152.772 181.766 152.335 181.708 152.1 181.459C150.227 179.468 152.188 175.752 153.318 173.825C154.888 171.145 157.161 169.431 159.436 167.409C161.889 165.23 163.454 162.315 164.967 159.443C165.894 157.684 166.789 155.886 167.731 154.119C166.747 153.245 166.432 151.51 166.098 150.303L166.068 150.195C165.517 148.263 165.079 146.281 164.802 144.29C164.536 142.375 164.425 140.488 164.495 138.563L164.516 138.073M169.113 143.668C168.896 143.369 169.256 143.029 169.554 143.092C171.368 143.469 173.142 144.572 174.77 145.464L174.944 145.558C176.244 146.262 177.552 147.125 178.234 148.492C178.977 149.979 178.916 151.691 178.814 153.306L178.805 153.457C178.681 155.394 178.661 157.407 178.253 159.309C178.044 160.283 177.166 160.557 176.415 160.327C175.522 163.159 173.013 165.246 171.181 167.481C168.844 170.331 169.284 174.178 169.528 177.61C169.627 178.999 167.906 179.394 167.02 178.653L164.977 176.949C164.637 176.665 164.297 176.38 163.959 176.094C163.668 175.848 163.381 175.601 163.096 175.351L162.67 174.973C162.481 174.804 161.648 173.869 161.404 173.83C160.814 173.736 159.412 175.298 158.932 175.788L158.871 175.849C157.968 176.738 157.152 177.695 156.392 178.711C156.252 178.897 155.978 178.742 156.078 178.527C156.759 177.061 157.551 175.66 158.492 174.349L158.682 174.088C159.307 173.241 160.147 171.746 161.252 171.496C162.6 171.191 163.947 172.549 164.928 173.303L164.99 173.35C165.457 173.702 165.918 174.06 166.379 174.42C166.33 171.865 166.652 169.283 167.965 167.081C168.891 165.528 170.279 164.378 171.466 163.044C172.788 161.558 173.478 159.732 174.675 158.184C174.829 157.985 175.041 157.878 175.271 157.844C175.317 156.6 175.5 155.343 175.641 154.112L175.682 153.744C175.824 152.407 176.161 150.774 175.509 149.521C174.893 148.339 173.481 147.504 172.434 146.701L171.58 146.036M110.232 129.529C109.686 129.846 109.175 130.241 108.712 130.734C107.254 132.288 106.212 134.221 105.197 136.081C104.651 137.083 104.124 138.095 103.574 139.094C103.334 139.529 103.088 139.959 102.839 140.389C102.724 140.586 102.382 140.98 102.212 141.222C102.4 141.487 102.595 141.748 102.794 142.006C102.87 142.105 108.1 147.827 109.923 150.067C112.715 153.498 115.211 157.121 117.344 161C119.433 164.798 121.024 168.819 122.959 172.691C123.928 174.629 125.009 176.554 126.388 178.231C126.442 178.297 126.498 178.359 126.552 178.423C127.079 176.995 128.427 175.466 129.089 174.588L129.151 174.506C130.653 172.472 132.24 170.499 133.861 168.561C135.341 166.79 136.859 165.058 138.414 163.354L138.998 162.716C140.082 161.541 141.458 159.783 143.043 158.943C142.873 158.639 142.677 158.338 142.451 158.041C140.965 156.091 138.865 154.676 136.792 153.399L135.448 152.578C130.383 149.477 125.396 146.233 120.997 142.204C118.671 140.073 116.376 137.84 114.42 135.353L113.729 134.474M118.685 127.994C116.313 128.194 113.751 128.146 111.558 128.923C113.507 130.773 115.36 132.771 117.263 134.653C117.432 133.38 117.779 132.123 118.072 130.882" fill="black"/>
<path fill-rule="evenodd" clip-rule="evenodd" d="M146.245 -21.8977C151.867 -23.0334 157.64 -23.74 163.381 -23.5273L163.824 -23.5101C168.143 -23.3373 173.614 -22.955 177.382 -20.4404C177.599 -20.6582 177.948 -20.77 178.264 -20.6189C182.742 -18.4791 187.668 -16.9321 192.383 -15.3947C197.076 -13.865 201.946 -12.8551 206.865 -12.4481C208.716 -12.2949 210.3 -10.2943 209.128 -8.49988C208.849 -8.07228 208.577 -7.64036 208.307 -7.20736C208.759 -7.25459 209.212 -7.30326 209.664 -7.34905C211.153 -7.49903 212.64 -5.90871 212.551 -4.45792C212.496 -3.54541 212.398 -2.64371 212.252 -1.75283C212.819 -1.76472 213.383 -1.67964 213.928 -1.44926C216.685 -0.283648 216.493 3.00407 216.287 5.50546C216.001 8.97669 214.704 12.6534 212.296 15.2514C214.094 17.1208 215.366 19.3532 216.126 22.0046C216.676 23.9407 216.983 26.0029 216.831 28.0183L216.783 28.6217C216.596 30.8088 216.224 33.2302 214.653 34.8036C213.846 35.6148 212.852 35.9104 211.904 35.8167C212.477 40.857 212.845 45.9261 213.19 50.9772L213.352 53.3914C214.124 65.0654 214.703 76.8155 214.552 88.5088C214.411 99.4367 212.254 110.044 205.559 118.916C199.461 126.996 190.706 132.952 180.802 135.216C175.464 136.438 170.015 136.525 164.613 135.746C161.994 135.368 159.358 134.787 156.873 133.871C154.122 132.855 152.144 131.358 150.293 129.116C149.418 128.052 149.839 125.788 151.582 126.001C154.219 126.321 156.626 126.707 159.154 127.487L159.516 127.602C162.034 128.409 164.642 129.011 167.274 129.267C172.666 129.79 178.14 129.264 183.305 127.627C191.714 124.959 198.957 119.014 203.599 111.543C209.11 102.689 209.733 92.637 209.653 82.4555C209.568 71.2831 209.205 60.1042 208.612 48.9434L208.512 47.0834C208.198 41.3401 207.896 35.5932 207.63 29.8462C207.547 28.0436 207.421 26.2265 207.193 24.4274C205.116 23.2088 203.254 21.5287 202.04 19.4556C199.602 20.4651 197.037 21.1934 194.678 21.7739C189.213 23.1194 183.539 23.446 177.977 22.6035C176.476 23.2239 174.946 23.7694 173.392 24.2388C172.972 24.4252 172.552 24.6084 172.133 24.7879C168.387 26.3923 164.587 27.7515 160.633 28.7466L159.662 28.9891C157.581 29.5026 155.32 30.0083 153.106 30.1671C152.742 30.3077 152.35 30.4267 151.921 30.5313C149.904 31.0216 147.811 31.1766 145.744 31.0036C143.731 30.8341 142.276 28.7971 143.385 26.8899C144.195 25.4982 145.013 24.1101 145.838 22.7257C142.968 23.9227 140.003 24.9177 137.014 25.7614C133.996 26.6122 130.935 27.3297 127.87 27.9895C126.231 28.3392 124.585 28.6493 122.95 28.999C121.78 29.2478 119.983 29.3775 119.028 30.1491C117.973 30.9963 117.674 32.9721 117.274 34.1907C116.748 35.7734 116.255 37.3634 115.804 38.9714C114.908 42.1801 114.173 45.4358 113.604 48.7238C113.035 52.0155 112.653 55.3397 112.441 58.6746C112.228 62.0059 112.322 65.3589 111.98 68.6758C111.796 70.4352 109.909 71.3402 108.515 70.1108C108.352 69.9665 108.187 69.8207 108.024 69.6733L107.781 69.451C106.588 68.3694 105.432 67.2229 104.478 65.9322C104.305 65.6942 104.139 65.4454 103.985 65.1931C103.959 65.1931 103.938 65.1859 103.912 65.1678L103.648 64.9686C100.735 62.7982 95.8689 59.9687 93.0286 63.5743C92.1236 64.7229 91.6602 66.1855 91.2756 67.5965L90.6008 70.1219C90.1643 71.7704 89.7535 73.4282 89.5132 75.115C88.9694 78.8934 89.2431 83.2486 91.8401 86.2771C92.8774 87.4885 94.3072 88.3538 95.9023 88.581C96.7923 88.7035 97.671 88.5521 98.5534 88.4403C99.4502 88.3286 100.314 88.5089 101.211 88.4223C102.638 88.2817 103.261 89.9906 102.728 91.065C102.439 91.6419 102.101 92.1394 101.716 92.5613C102.025 92.8281 102.321 93.1165 102.605 93.4193C103.448 93.6897 104.204 94.2702 104.77 95.0381C105.227 95.6583 105.464 96.3325 105.504 97.0427C105.554 97.2194 105.598 97.3996 105.638 97.5835L106.41 98.8389C106.58 99.1142 106.75 99.3862 106.919 99.653C108.886 102.754 111.069 105.378 113.781 107.852C116.392 110.231 119.226 112.362 121.679 114.914L121.968 115.217C124.255 117.63 126.665 120.55 125.77 124.058C125.54 124.959 124.282 125.608 123.462 124.999C120.822 123.037 119.492 119.929 117.253 117.55C114.947 115.098 112.394 112.895 110.082 110.451C107.895 108.144 106.17 105.53 104.87 102.653C104.352 103.226 103.596 103.633 102.548 103.792C100.747 104.062 99.0681 103.006 98.2833 101.445C97.7787 101.668 97.2641 101.87 96.7451 102.029C94.0151 102.865 92.2975 99.826 93.3276 97.5799C93.8782 96.3757 94.5661 95.3302 95.4201 94.4505C92.751 94.0827 90.0354 92.7019 88.2815 90.9785C83.8807 86.6485 83.2757 80.1408 84.2661 74.3543C84.7919 71.2861 85.6992 68.1819 86.8772 65.3012C87.0821 64.8001 87.3022 64.2953 87.5431 63.7978C87.4099 63.7942 87.273 63.7365 87.1866 63.6247C86.3907 62.5359 85.4222 61.6454 84.8312 60.4268C84.2874 59.3091 83.6827 58.1771 83.2537 57.0125C82.3717 54.6294 81.9395 51.9398 81.6514 49.4197C81.0571 44.2604 81.2873 39.1336 82.0764 34.0068C83.4194 25.2747 86.6637 16.9182 91.4432 9.58563C91.183 9.44873 90.9336 9.28349 90.7012 9.08809L90.5864 8.98786L90.3999 8.81913C89.036 7.58358 89.1538 5.26787 90.3999 4.01645L90.7935 3.62152C91.2918 3.1259 91.7216 2.73324 92.5266 2.19359C92.6454 2.11391 92.7668 2.03892 92.8896 1.96897C92.4682 1.1895 92.322 0.278066 92.6155 -0.727466C93.6384 -4.23042 98.6733 -4.1064 101.865 -2.57881C105.395 -5.73313 109.31 -8.47139 113.553 -10.6887C123.66 -15.9669 135.087 -19.648 146.245 -21.8977ZM94.005 70.3632C95.8922 69.7466 98.3988 71.041 100.095 71.8197C102.245 72.8076 104.075 74.2677 105.847 75.8108C106.729 76.5824 106.887 77.8442 106.668 78.9222C106.646 79.0304 106.625 79.1422 106.599 79.2539C106.365 80.404 105.083 81.309 103.948 81.2765C101.575 81.2116 100.444 79.1602 99.1008 77.4224C98.9427 77.7036 98.7446 77.9632 98.4993 78.1579L98.3337 78.2877C97.7761 78.7127 97.1615 79.0524 96.4248 79.0196C95.9026 78.9944 95.4023 78.861 94.941 78.6194C93.7885 78.0101 93.281 76.5175 93.594 75.3025C93.7885 74.5381 94.2351 73.9397 94.8185 73.525L94.6011 73.3761C94.1357 73.0519 93.7113 72.7102 93.3805 72.2058L93.3059 72.0865H93.3347C92.9746 71.4664 93.209 70.6227 94.005 70.3632Z" fill="black"/>
<path fill-rule="evenodd" clip-rule="evenodd" d="M172.178 94.2849C172.695 93.3841 173.885 92.5494 174.973 92.6775C179.85 93.251 179.842 99.1802 177.959 102.642C176.289 105.711 172.833 107.513 169.375 107.25C165.741 106.973 162.646 104.831 161.283 101.422C160.382 99.1677 159.966 95.0054 162.363 93.4905C162.407 93.4621 162.481 93.4692 162.516 93.5101C163.665 94.8507 163.71 96.8635 164.716 98.3561C165.652 99.7443 167.106 100.891 168.809 101.068C170.081 101.2 171.368 100.74 171.865 99.595C172.134 98.9757 172.104 98.6394 172.002 98.2131L171.91 97.8427C171.592 96.5451 171.449 95.5572 172.178 94.2849ZM173.482 68.2817C176.026 69.8321 179.901 73.4472 177.165 77.2908C173.944 80.6799 169.307 76.7941 167.021 75.0367C164.903 73.6748 162.522 77.1777 164.488 78.768C181.001 91.0275 187.702 68.6871 174.768 66.4588C173.344 66.2133 172.816 67.802 173.482 68.2817ZM146.622 57.6505C148.183 55.3016 151.747 55.6475 152.607 58.4348C153.073 59.9446 152.429 61.3018 152.463 62.8096C152.491 64.0833 152.407 65.5026 152.018 66.7362C151.13 69.5491 148.607 71.5359 145.623 71.4535C142.648 71.3714 140.027 69.4832 138.781 66.824C137.531 64.1546 137.796 61.3919 138.709 58.6776C138.753 58.5472 138.923 58.4841 139.026 58.5939C140.105 59.7437 140.895 60.9575 141.712 62.2452L142.549 63.5649C143.19 64.5586 144.12 65.8281 145.315 65.7483L145.494 65.7306C145.826 65.702 145.776 65.7681 146.032 65.3141C146.15 65.104 146.129 64.7136 146.186 64.4657L146.206 64.3819V64.3819L146.195 64.3368C146.17 64.2167 146.145 63.9904 146.124 63.5978L146.12 63.5111C146.033 61.6747 145.516 59.3147 146.622 57.6505ZM186.197 59.2142C185.917 56.2101 190.129 55.543 191.529 57.7658C192.259 58.925 192.472 60.3812 192.633 61.7608L192.709 62.4156C192.875 63.8325 192.94 65.3066 192.327 66.6283C191.361 68.7099 189.26 69.8104 186.994 69.6361C184.83 69.4692 182.855 68.2111 181.814 66.301C180.886 64.5966 179.964 61.2689 181.091 59.4912C181.159 59.3834 181.295 59.3696 181.388 59.4527C182.453 60.4008 182.627 62.1302 183.26 63.3654C183.913 64.6395 184.904 65.8811 186.405 66.0747C187.841 66.2598 188.39 65.4731 188.024 64.1C187.551 62.3274 186.375 61.1216 186.197 59.2142ZM147.76 39.7903L148.449 39.5257C150.808 38.6318 154.048 37.5985 155.967 39.5228C157.151 40.7094 157.376 42.4573 156.531 43.9053C155.508 45.6594 153.671 45.7026 151.898 45.961C149.882 46.2549 147.831 46.8135 145.953 47.61C143.838 48.5075 141.876 49.6262 139.953 50.8756C138.125 52.0628 136.304 54.0033 134.116 54.3691C134.027 54.384 133.925 54.3455 133.902 54.2472C133.405 52.1024 134.786 49.9916 136.018 48.3183C137.509 46.2924 139.315 44.6295 141.334 43.1386C143.283 41.6994 145.509 40.6594 147.76 39.7903ZM190.628 47.416L190.838 47.3791C192.269 47.1402 193.566 47.1952 194.644 48.3317C195.467 49.1988 195.785 50.3226 195.392 51.4689C195.03 52.5265 194.221 53.601 193.045 53.8225C189.078 54.571 184.683 54.4474 180.696 53.8806C178.871 53.6212 177.031 53.3038 175.254 52.8031L174.436 52.5655C172.953 52.1406 171.254 51.6966 170.177 50.6026C169.789 50.2094 170.013 49.6467 170.476 49.4646C172.356 48.7262 174.934 49.1191 176.938 49.0613C179.271 48.9944 181.606 48.8191 183.928 48.5776C186.196 48.3412 188.391 47.8274 190.628 47.416Z" fill="black"/>
</g>
<defs>
<filter id="filter0_d" x="0" y="-47" width="311.631" height="399" filterUnits="userSpaceOnUse" color-interpolation-filters="sRGB">
<feFlood flood-opacity="0" result="BackgroundImageFix"/>
<feColorMatrix in="SourceAlpha" type="matrix" values="0 0 0 0 0 0 0 0 0 0 0 0 0 0 0 0 0 0 127 0"/>
<feOffset dy="4"/>
<feGaussianBlur stdDeviation="2"/>
<feColorMatrix type="matrix" values="0 0 0 0 0 0 0 0 0 0 0 0 0 0 0 0 0 0 0.25 0"/>
<feBlend mode="normal" in2="BackgroundImageFix" result="effect1_dropShadow"/>
<feBlend mode="normal" in="SourceGraphic" in2="effect1_dropShadow" result="shape"/>
</filter>
</defs>
</svg>
