<svg width="301" height="344" viewBox="0 0 301 344" fill="none" xmlns="http://www.w3.org/2000/svg">
  <g class="stroke">
    <path fill-rule="evenodd" clip-rule="evenodd" d="M114.334 143.984C115.584 140.828 119.81 142.055 119.339 145.37C119.057 147.355 117.974 149.452 117.002 151.192C116.21 152.609 115.306 153.991 114.082 155.053C116.262 157.096 118.525 159.064 120.845 160.933C123.377 162.972 126.04 164.852 128.792 166.58C131.205 168.095 133.727 169.437 136.002 171.166C138.117 172.773 140.044 174.705 141.024 177.229C142.069 179.916 141.615 182.691 140.846 185.376L140.758 185.679C139.972 188.339 138.612 191.546 140.498 194.053C141.458 195.328 142.854 196.232 144.059 197.252C145.13 198.159 146.136 199.145 147.058 200.204C149.069 202.512 150.704 205.11 151.736 208.005L151.829 208.268C152.713 210.83 153.36 213.969 152.164 216.485C151.821 217.206 150.715 216.972 150.523 216.27C150.089 214.679 150.112 213.013 149.748 211.399C149.369 209.722 148.738 208.129 147.915 206.622C146.321 203.707 144.164 201.218 141.614 199.113L140.851 198.489C138.863 196.85 137.035 195.111 136.632 192.398C136.2 189.496 137.358 186.731 138.102 183.983C138.621 182.069 138.79 180.234 138.23 178.503C137.545 179.626 136.61 180.692 135.871 181.643C134.399 183.537 132.913 185.42 131.43 187.306C129.911 189.24 128.429 191.204 127.017 193.22C126.386 194.121 125.761 195.028 125.138 195.936C124.67 196.619 124.017 197.3 123.507 197.996C123.631 198.369 123.622 198.798 123.397 199.102C120.691 202.775 116.841 195.112 115.837 193.177C113.792 189.234 112.271 185.046 110.219 181.104C108.093 177.019 105.673 173.042 102.975 169.311C101.343 167.055 99.5141 164.936 98.0213 162.608C94.5044 165.811 89.8765 167.958 85.6257 169.905C80.9552 172.044 76.1031 173.791 71.3145 175.647L69.9 176.199C61.6493 179.433 53.1968 182.986 46.3389 188.73C38.2801 195.481 33.5125 204.89 29.9632 214.633C25.8774 225.849 22.4972 237.368 19.3463 248.88C17.7338 254.77 16.2038 260.686 14.7655 266.622C13.498 271.851 12.4474 277.133 10.9802 282.308C13.9559 282.202 17.3496 283.359 19.8901 283.693C31.4685 285.216 42.8909 287.642 53.8222 291.843C55.1725 292.362 55.5632 293.716 55.2691 294.814C56.0478 294.593 56.8259 294.37 57.6046 294.15C56.7515 292.837 57.1586 290.49 57.2257 289.035L57.2298 288.935C57.2988 286.996 57.5082 285.055 57.6441 283.119C57.9027 279.429 58.2394 275.767 58.6871 272.098L58.8013 271.181C59.3087 267.19 59.6837 263.175 60.2373 259.191L60.3027 258.735C60.0373 257.715 59.7282 256.708 59.4038 255.706C58.5394 253.035 57.3194 250.522 56.2502 247.935C56.1241 247.631 56.556 247.456 56.7578 247.638C58.5686 249.274 60.0069 251.35 61.1624 253.521C61.1825 253.418 61.2001 253.316 61.2211 253.213L61.3529 252.561C61.6781 250.972 62.0736 249.299 63.0445 248.01C63.1479 247.873 63.3523 247.844 63.4502 248.01C64.3794 249.589 64.4834 251.589 64.6263 253.386C64.788 255.419 64.8084 257.478 64.7798 259.516C64.7241 263.5 64.4445 267.495 64.2218 271.472C64.0033 275.381 63.5741 279.24 63.0211 283.11L62.916 283.835C62.6457 285.678 62.4243 287.542 62.0678 289.372L61.967 289.87C61.7764 290.777 61.6592 292.056 61.2797 293.119C71.0428 290.384 80.821 287.711 90.6177 285.086C97.6984 283.188 104.786 281.318 111.871 279.437C112.245 278.76 112.711 278.128 113.292 277.563C115.206 275.701 117.743 274.871 120.069 276.304C120.258 276.421 120.274 276.718 120.069 276.831C119.623 277.076 119.177 277.327 118.738 277.588L122.992 276.431C126.172 275.565 129.39 274.484 132.645 273.881C138.64 270.909 145.087 268.759 151.402 266.633L152.146 266.38C155.379 265.273 158.724 264.034 162.065 263.42C164.51 262.971 167.381 263.513 168.364 266.029C169.609 266.853 170.781 267.822 171.911 268.774C172.729 269.463 173.512 270.194 174.309 270.907L174.456 271.036C175.107 271.604 175.623 271.984 175.783 272.888C175.865 273.354 175.57 273.985 174.997 273.923C173.244 273.735 171.818 271.694 170.629 270.475C169.71 269.533 168.784 268.558 167.946 267.523C167.457 267.79 166.787 267.742 166.476 267.15C164.863 264.082 160.443 266.208 157.998 266.936L154.495 267.977C152.743 268.499 150.992 269.023 149.245 269.556C144.441 271.021 139.661 272.661 134.814 274.006C135.248 274.485 135.188 275.336 134.364 275.66C130.57 277.156 126.408 277.929 122.466 278.955C119.977 279.603 117.49 280.255 115.004 280.911C114.578 281.605 114.271 282.39 114.142 283.303C113.667 286.662 114.582 290.537 115.474 293.786L115.608 294.27C116.341 296.882 117.419 300.084 119.662 301.733C120.21 302.135 120.907 302.415 121.61 302.478C126.002 300.208 130.394 297.938 134.788 295.671C135.602 295.252 136.354 295.82 136.537 296.496C138.086 296.241 139.632 295.838 141.04 295.358C143.406 294.551 145.253 293.012 147.471 291.948C151.763 289.889 156.145 292.418 159.988 294.341L160.873 294.778C162.596 295.617 166.181 297.231 167.008 294.934C167.807 292.712 165.279 290.338 163.646 289.338C161.7 288.146 159.434 287.508 157.234 286.977C155.978 286.673 154.707 286.425 153.428 286.244C151.977 286.039 150.479 286.07 149.082 285.598C148.388 285.363 148.281 284.256 149.082 284.073C151.232 283.582 153.799 284.118 156.042 284.666L157.215 284.956C159.476 285.513 161.758 286.212 163.817 287.324C165.314 288.132 166.895 289.36 167.927 290.863C168.824 290.027 169.939 290.055 171.102 290.365L171.733 290.541C172.774 290.831 173.619 291.031 174.632 290.83C174.768 290.089 174.905 289.349 175.052 288.608C176.497 281.324 178.081 274.068 179.829 266.852C182.844 254.403 186.333 242.092 190.266 229.907L190.661 228.688C191.568 225.901 192.298 222.865 193.761 220.304C195.144 217.883 197.36 216.488 199.993 215.75C202.981 214.912 206.121 214.473 209.169 213.907C209.849 213.781 210.531 213.661 211.211 213.537C210.636 212.494 210.207 211.311 209.82 210.402L209.752 210.245C208.922 208.342 208.175 206.406 207.455 204.459L206.916 202.995C205.615 199.471 204.271 196.004 202.442 192.708C200.516 189.238 197.962 186.402 194.777 184.055C188.284 179.268 180.458 176.827 174.161 171.711C173.903 171.502 174.234 171.143 174.495 171.276C178.748 173.422 183.338 174.881 187.761 176.628L188.634 176.974C192.129 178.366 195.68 179.881 198.705 182.134C202.079 184.647 204.736 187.768 206.733 191.479C208.701 195.137 209.96 199.231 211.348 203.138L211.72 204.179C212.28 205.741 212.858 207.297 213.521 208.816C214.047 210.022 215.029 211.399 215.475 212.777C216.697 212.564 217.918 212.351 219.14 212.146C245.617 207.706 272.389 205.097 299.221 204.334C300.271 204.304 300.814 205.31 300.659 206.23C298.084 221.523 295.796 236.868 293.285 252.172C292.189 258.852 291.071 265.526 289.927 272.197C289.348 275.577 288.678 278.944 288.129 282.329C287.686 285.063 287.364 287.818 286.603 290.488C285.921 292.882 284.874 295.191 283.154 297.017C281.301 298.986 278.713 299.939 276.109 300.39C269.497 301.533 262.716 301.999 256.05 302.761L220.564 306.815C221.083 311.549 221.122 316.21 220.884 320.999L220.748 323.614C220.637 325.716 220.505 327.823 220.204 329.904C219.827 332.515 218.638 334.725 216.886 336.675C215.278 338.466 213.324 339.994 211.423 341.458C209.45 342.979 207.412 344.446 205.092 345.386L204.791 345.506C202.756 346.304 198.939 347.54 196.158 347.088C196.521 348.918 197.225 350.885 196.601 352.695C196.312 353.536 195.217 353.955 194.547 353.24C193.218 351.823 193.115 349.95 192.8 348.101C192.473 346.176 192.19 344.245 191.94 342.309C191.455 338.565 191.077 334.787 190.962 331.012C190.844 327.135 190.889 323.253 191.097 319.38C191.204 317.391 191.337 315.403 191.588 313.427C191.695 312.585 191.805 311.741 191.93 310.901C191.976 310.594 192.027 310.289 192.081 309.984L188.896 310.345C184.012 310.893 179.126 311.388 174.208 311.464C173.625 311.473 173.177 311.207 172.884 310.819C172.572 311.329 172.029 311.695 171.251 311.692C164.382 311.666 157.986 309.41 151.739 306.752C148.59 305.411 145.49 303.96 142.336 302.631C139.393 301.391 136.246 300.506 133.373 299.108L125.825 303.085C125.77 303.28 125.699 303.465 125.623 303.62C125.132 304.628 124.163 305.174 123.173 305.586C122.224 305.982 121.24 306.105 120.281 306.005C114.557 309.018 108.831 312.028 103.101 315.031L97.3702 318.031C85.9518 324.003 74.5786 330.072 63.0884 335.902L62.2424 336.33C58.2737 338.329 54.012 340.355 49.6077 341.867C49.5293 342.986 49.5788 344.075 49.6722 345.26L49.6947 345.519C49.826 346.919 50.1076 348.674 48.989 349.671C48.4071 350.189 47.3677 350.191 46.972 349.41C46.254 347.992 46.8986 345.757 47.1261 344.217C47.2068 343.669 47.3052 343.106 47.4508 342.56C42.4015 344.069 37.1994 344.802 32.0612 343.954C27.0586 343.129 23.184 339.964 20.0604 336.092C16.7639 332.007 14.4214 327.245 13.1645 322.141C11.7341 316.333 11.6408 310.335 11.6743 304.386C11.71 298.051 11.9433 291.684 12.7105 285.392C11.87 285.193 10.9378 285.021 10.0884 285.081C9.66768 285.757 8.85158 286.041 8.11414 285.954C6.51052 287.73 10.5781 289.545 11.8779 290C12.3293 290.158 12.281 290.894 11.7604 290.872L11.4324 290.856C9.42391 290.749 7.34882 290.404 6.16787 288.53C5.22155 287.027 5.50586 285.247 6.63396 284.022C7.37906 276.946 9.16034 270.056 10.8182 263.153C12.4451 256.379 14.2543 249.647 16.172 242.95L17.0317 239.952C20.0511 229.451 23.2071 218.865 27.372 208.781C29.4518 203.746 31.8476 198.803 35.0952 194.413C38.1225 190.32 41.6965 186.818 45.8047 183.827C53.4634 178.251 62.4501 174.881 71.2798 171.671L71.6751 171.527C76.2508 169.865 80.8154 168.183 85.339 166.381C89.3397 164.788 93.1724 162.769 97.1542 161.152C97.0249 160.916 96.9 160.678 96.7797 160.437L96.7061 160.499C96.6936 160.509 96.6807 160.519 96.6672 160.528C96.2668 160.806 95.6773 160.669 95.3473 160.357C94.4156 159.474 94.731 158.493 95.3529 157.578L95.4339 157.461C96.1946 156.391 96.8731 155.259 97.5752 154.15L98.0149 153.457C99.1933 151.604 100.432 149.739 102.003 148.207C102.731 147.498 103.527 146.967 104.372 146.571C104.299 146.418 104.932 146.105 105.112 146.262C107.786 145.279 110.863 145.485 113.778 145.756M218.847 307.011L215.129 307.436C211.039 307.903 206.946 308.355 202.854 308.803L193.964 309.773C193.942 310.282 193.88 310.78 193.869 311.164C193.811 313.146 193.768 315.129 193.727 317.111C193.644 321.084 193.735 325.062 193.995 329.027C194.247 332.87 194.58 336.713 195.097 340.53L195.202 341.293L195.264 341.694C195.685 341.735 196.099 341.936 196.444 342.35C197.196 343.251 199.918 342.375 200.982 341.995C202.73 341.37 204.377 340.314 205.896 339.255C207.38 338.222 208.716 337.016 210 335.746L211.05 334.703C212.095 333.66 213.142 332.549 213.782 331.237C214.65 329.458 214.762 327.274 215.017 325.337C215.33 322.953 215.704 320.57 216.098 318.199M110.911 281.995L110.525 282.096C96.5159 285.835 82.5273 289.684 68.4748 293.258C61.5206 295.027 54.5333 296.667 47.5706 298.402L46.4433 298.685C40.9504 300.08 35.3915 301.758 31.1852 305.759C31.0299 305.907 30.8046 305.68 30.9507 305.524C35.484 300.677 41.9315 298.625 48.1221 296.846C49.2664 296.518 50.4122 296.196 51.5568 295.869C43.1377 292.855 34.5857 290.232 25.8364 288.362C23.5834 287.88 21.3042 287.527 19.053 287.043C17.483 286.706 15.9497 286.218 14.3963 285.813L13.1744 285.505L13.1582 289.383C13.1379 294.877 13.1476 300.366 13.4266 305.859L13.4795 306.876C13.805 312.989 14.3132 319.228 16.473 324.992C18.2281 329.676 21.0255 334.088 24.6838 337.499C26.5349 339.225 28.5251 340.569 30.9852 341.233C33.2694 341.848 35.6626 341.921 38.0107 341.756C49.2738 340.967 59.2997 334.822 69.0835 329.734C85.0864 321.412 101.091 313.095 117.11 304.805C116.677 304.508 116.269 304.165 115.898 303.78C113.75 301.552 112.617 298.502 111.873 295.548C111.081 292.403 110.607 289.033 110.552 285.787M131.294 308.017C131.436 307.941 131.599 308.037 131.606 308.197C131.655 309.426 130.979 310.638 130.474 311.745L130.421 311.863C129.807 313.234 129.135 314.587 128.44 315.919C127.051 318.579 125.607 321.211 124.1 323.806C121.07 329.026 117.704 334.026 113.724 338.572C112.825 339.598 111.347 338.282 111.923 337.176C114.705 331.847 117.947 326.815 121.284 321.827C122.955 319.33 124.625 316.83 126.312 314.344C127.016 313.306 127.729 312.272 128.461 311.254L128.903 310.646M297.447 207.386C283.388 207.813 269.347 208.734 255.355 210.177C242.343 211.519 229.378 213.305 216.487 215.532C213.794 215.997 211.105 216.481 208.419 216.985L206.808 217.289C204.122 217.8 200.84 218.011 198.448 219.453C195.926 220.972 195.245 224.148 194.406 226.766C193.419 229.846 192.458 232.935 191.523 236.031C187.808 248.324 184.415 260.723 181.388 273.205C179.885 279.4 178.552 285.63 177.148 291.848C175.899 297.373 174.522 302.835 173.084 308.304C173.261 308.166 173.479 308.06 173.741 308.004C180.885 306.478 188.177 305.814 195.428 304.971L196.13 304.888C203.63 304.002 211.131 303.123 218.636 302.276L268.327 296.663C271.257 296.332 274.397 296.287 277.249 295.497C282.098 294.154 283.234 288.709 284.048 284.373L284.072 284.242C286.525 271.142 288.477 257.927 290.765 244.793M174.24 293.075C172.311 292.947 169.671 291.172 168.207 291.3C168.975 292.595 169.322 294.071 168.879 295.649C167.647 300.038 162.074 297.767 159.389 296.426C157.188 295.326 155.062 293.98 152.626 293.465C149.865 292.882 147.995 293.985 145.663 295.256C143.747 296.299 141.661 297.049 139.515 297.437C138.375 297.643 137.291 297.665 136.209 297.585C136.144 297.638 136.071 297.687 135.987 297.732L135.415 298.033C138.002 298.152 140.637 298.954 143.045 299.688C145.54 300.448 147.989 301.365 150.425 302.303L152.822 303.228C158.733 305.502 164.853 307.661 171.251 307.642C171.711 307.641 172.087 307.768 172.384 307.977M163.447 279.323C165.352 279.089 167.112 279.34 168.635 280.586C170.471 282.088 171.705 284.581 174.345 284.744C175.115 284.792 175.294 285.879 174.529 286.106C172.564 286.691 170.972 285.623 169.633 284.236L168.733 283.291C167.41 281.915 166.189 280.851 163.944 280.933C161.539 281.022 159.13 281.58 156.741 281.863C154.035 282.185 151.329 282.459 148.614 282.695C148.488 282.706 148.467 282.507 148.585 282.477L151.626 281.717M161.607 271.497L161.921 271.466C164.689 271.196 167.22 271.185 169.692 272.681L170.166 272.969C172.394 274.329 174.82 275.932 176.214 278.134C176.442 278.495 176.065 278.919 175.683 278.827C173.005 278.182 171.047 276.208 168.794 274.731C166.266 273.073 163.655 273.346 160.773 273.604C157.982 273.853 155.193 274.196 152.43 274.663C149.833 275.102 147.229 275.794 144.606 276.015L144.607 276.01C144.307 276.009 144.136 275.557 144.442 275.404C147.103 274.069 150.186 273.437 153.081 272.827M245.681 244.024C245.414 242.739 246.988 242.143 247.717 243.162L247.872 243.377C249.448 245.546 251.728 248.267 251.612 251.025C252.997 251.055 254.433 251.901 254.973 253.156C255.222 253.737 255.307 254.425 255.252 255.138C256.511 255.236 257.884 256.066 258.654 256.875C259.93 258.215 260.031 260.109 259.116 261.675C257.12 265.088 252.76 266.33 249.079 266.607L248.948 266.617C245.146 266.881 239.668 266.809 237.061 263.533C234.546 260.373 237.325 257.815 240.175 256.426C239.433 255.745 239.049 254.77 239.41 253.741C240.045 251.933 242.284 251.234 243.55 249.977C245.092 248.444 246.112 246.342 245.705 244.144M247.771 246.803C247.352 248.633 246.322 250.306 244.887 251.632C244.339 252.14 243.738 252.591 243.101 252.979L243.024 253.024C242.458 253.343 241.068 253.941 241.175 254.656C241.285 255.392 243.551 256.543 244.168 256.544C244.309 256.544 244.388 256.764 244.245 256.828C243.126 257.325 242.148 257.538 241.054 257.013C240.322 257.763 239.612 258.539 238.908 259.308C237.664 260.669 238.09 262.106 239.56 263.119C241.922 264.747 245.513 264.707 248.269 264.589C251.044 264.47 254.009 263.848 256.176 261.993L256.27 261.91C257.448 260.858 258.524 259.075 256.72 258.062C256.014 257.665 255.251 257.689 254.58 257.496C253.953 258.731 252.935 259.721 251.693 259.912C250.689 260.066 249.997 258.799 250.911 258.193L251.116 258.065C252.262 257.329 253.241 256.197 253.215 254.723C253.197 253.699 251.774 252.407 250.847 253.368L250.805 253.414C250.029 254.293 248.662 253.186 249.173 252.213L249.197 252.169M66.8384 195.913C66.8349 195.693 67.1428 195.611 67.2503 195.801C69.051 198.983 69.9923 202.883 70.9516 206.389C71.9563 210.061 72.7674 213.77 73.496 217.507C74.9718 225.074 75.7581 232.597 75.8114 240.309C75.8188 241.41 74.0328 241.703 73.8581 240.575C72.6982 233.073 71.5868 225.564 70.4181 218.064C69.83 214.292 69.1456 210.535 68.4907 206.774M84.6655 201.455C84.533 201.016 85.1688 200.869 85.3314 201.271C88.9452 210.18 90.169 220.277 87.8489 229.677C87.4939 231.114 85.3971 230.491 85.6649 229.072M131.28 193.538C131.261 193.21 131.686 193.158 131.846 193.384C133.558 195.807 134.269 199.053 137.273 200.305C138.773 200.93 140.461 200.821 141.786 201.877C142.672 202.584 143.351 203.699 142.686 204.768C142.472 205.114 141.871 205.287 141.58 204.912C141.155 204.364 140.931 203.709 140.353 203.299C139.539 202.721 138.442 202.685 137.508 202.413C136.301 202.061 135.237 201.446 134.365 200.532M159.887 153.122C160.063 153.032 160.233 153.09 160.345 153.243C160.507 153.461 160.487 153.674 160.289 153.823C160.553 154.365 160.865 155.721 160.909 155.918C161.089 156.718 161.281 157.513 161.482 158.308C161.887 159.911 162.241 161.527 162.646 163.13C163.076 164.83 163.588 166.511 164.157 168.169C164.194 168.276 164.234 168.386 164.277 168.497L164.342 168.665L164.358 168.639C164.473 168.455 164.714 168.584 164.686 168.778C164.659 168.955 164.624 169.131 164.594 169.308L164.653 169.467C165.026 170.474 165.281 171.534 164.597 172.423C164.342 172.755 164.06 172.952 163.71 173.01C163.148 174.872 162.442 176.698 161.687 178.452L161.466 178.965C160.355 181.524 159.17 184.05 157.402 186.229C155.471 188.609 152.815 190.233 151.133 192.84C150.35 194.053 149.806 195.328 149.364 196.697L149.198 197.217C148.884 198.186 148.522 199.124 147.618 199.693C147.329 199.874 146.896 199.816 146.664 199.569C144.808 197.598 146.75 193.917 147.869 192.009C149.424 189.355 151.675 187.658 153.928 185.656C156.357 183.498 157.907 180.611 159.406 177.767C160.324 176.025 161.21 174.245 162.143 172.495C161.168 171.629 160.856 169.91 160.526 168.716L160.496 168.608C159.95 166.695 159.516 164.732 159.242 162.76C158.978 160.865 158.868 158.996 158.938 157.09L158.958 156.604M163.511 162.145C163.296 161.848 163.652 161.513 163.948 161.574C165.745 161.948 167.501 163.04 169.114 163.923L169.286 164.017C170.573 164.714 171.868 165.568 172.544 166.922C173.279 168.394 173.219 170.09 173.118 171.689L173.109 171.839C172.986 173.757 172.966 175.751 172.562 177.634C172.355 178.599 171.486 178.87 170.743 178.642C169.858 181.447 167.374 183.514 165.559 185.727C163.245 188.549 163.68 192.359 163.922 195.757C164.02 197.133 162.316 197.524 161.438 196.79L159.415 195.103C159.079 194.821 158.742 194.539 158.407 194.256C158.119 194.013 157.835 193.768 157.552 193.521L157.13 193.147C156.943 192.978 156.118 192.053 155.877 192.014C155.292 191.921 153.904 193.468 153.429 193.953L153.368 194.014C152.474 194.894 151.666 195.842 150.913 196.847C150.775 197.032 150.504 196.879 150.603 196.665C151.277 195.214 152.062 193.827 152.993 192.528L153.181 192.27C153.801 191.431 154.632 189.95 155.726 189.703C157.061 189.401 158.395 190.746 159.366 191.492L159.428 191.539C159.89 191.887 160.347 192.242 160.803 192.598C160.755 190.068 161.074 187.512 162.374 185.331C163.292 183.793 164.666 182.654 165.842 181.333C167.151 179.861 167.834 178.053 169.019 176.52C169.172 176.323 169.382 176.217 169.61 176.183C169.655 174.951 169.836 173.707 169.976 172.488L170.016 172.123C170.157 170.799 170.491 169.182 169.845 167.941C169.235 166.77 167.836 165.943 166.8 165.149L165.954 164.489M105.202 148.143C104.661 148.457 104.155 148.848 103.696 149.337C102.252 150.875 101.22 152.79 100.215 154.631C99.6745 155.623 99.153 156.626 98.6076 157.616C98.3705 158.046 98.1265 158.472 97.8799 158.897C97.7659 159.093 97.4271 159.483 97.2592 159.722C97.4458 159.985 97.6387 160.244 97.8355 160.499C97.9106 160.597 103.09 166.264 104.896 168.482C107.66 171.879 110.132 175.468 112.244 179.309C114.313 183.07 115.888 187.052 117.805 190.886C118.764 192.806 119.835 194.712 121.201 196.373C121.254 196.438 121.309 196.499 121.363 196.563C121.884 195.149 123.22 193.635 123.876 192.765L123.937 192.683C125.425 190.669 126.996 188.716 128.601 186.796C130.067 185.043 131.57 183.327 133.11 181.64L133.689 181.009C134.761 179.845 136.124 178.103 137.694 177.272C137.526 176.971 137.331 176.673 137.108 176.379C135.636 174.447 133.556 173.046 131.504 171.782L130.173 170.968C125.156 167.898 120.218 164.685 115.862 160.695C113.558 158.584 111.286 156.373 109.349 153.911L108.664 153.04M113.572 146.623C111.223 146.821 108.686 146.774 106.515 147.543C108.445 149.375 110.28 151.354 112.164 153.217C112.332 151.957 112.675 150.712 112.965 149.483" />
    <path fill-rule="evenodd" clip-rule="evenodd" d="M140.865 -1.81458C146.432 -2.93924 152.149 -3.63904 157.835 -3.42839L158.273 -3.41134C162.551 -3.24019 167.969 -2.86159 171.7 -0.371435C171.915 -0.587085 172.26 -0.697766 172.573 -0.548168C177.008 1.57085 181.886 3.10289 186.555 4.6253C191.203 6.14021 196.025 7.14027 200.897 7.54336C202.73 7.6951 204.298 9.6763 203.138 11.4533C202.862 11.8767 202.593 12.3045 202.325 12.7333C202.773 12.6865 203.221 12.6383 203.669 12.5929C205.143 12.4444 206.616 14.0193 206.528 15.456C206.474 16.3597 206.376 17.2526 206.232 18.1349C206.793 18.1231 207.352 18.2073 207.891 18.4355C210.622 19.5898 210.431 22.8456 210.227 25.3227C209.944 28.7603 208.66 32.4014 206.275 34.9742C208.055 36.8254 209.316 39.0362 210.068 41.6618C210.613 43.5791 210.916 45.6214 210.767 47.6172L210.719 48.2147C210.534 50.3806 210.165 52.7785 208.609 54.3366C207.81 55.14 206.826 55.4327 205.887 55.3399C206.455 60.3313 206.818 65.3512 207.161 70.3533L207.321 72.7441C208.085 84.3049 208.659 95.941 208.509 107.521C208.37 118.343 206.234 128.847 199.603 137.633C193.565 145.635 184.895 151.533 175.086 153.775C169.801 154.985 164.404 155.071 159.055 154.3C156.461 153.925 153.851 153.35 151.39 152.443C148.665 151.436 146.707 149.955 144.874 147.734C144.007 146.681 144.424 144.439 146.151 144.649C148.762 144.966 151.146 145.348 153.649 146.121L154.008 146.234C156.501 147.034 159.083 147.63 161.69 147.884C167.03 148.402 172.45 147.88 177.565 146.259C185.893 143.617 193.066 137.73 197.663 130.332C203.12 121.563 203.737 111.609 203.658 101.526C203.574 90.4622 203.214 79.3918 202.627 68.3392L202.527 66.4973C202.217 60.8097 201.918 55.1185 201.654 49.4274C201.572 47.6422 201.447 45.8427 201.222 44.0611C199.165 42.8543 197.321 41.1905 196.119 39.1376C193.704 40.1373 191.165 40.8585 188.828 41.4333C183.416 42.7658 177.797 43.0893 172.289 42.2549C170.803 42.8693 169.288 43.4095 167.749 43.8744C167.333 44.059 166.917 44.2403 166.502 44.4181C162.792 46.007 159.029 47.353 155.114 48.3384L154.152 48.5786C152.091 49.0871 149.852 49.5879 147.659 49.7451C147.299 49.8844 146.91 50.0022 146.486 50.1057C144.489 50.5913 142.416 50.7448 140.369 50.5735C138.375 50.4057 136.934 48.3884 138.033 46.4997C138.835 45.1215 139.645 43.7469 140.462 42.3759C137.619 43.5613 134.684 44.5467 131.724 45.3821C128.735 46.2248 125.703 46.9353 122.668 47.5886C121.045 47.935 119.415 48.242 117.796 48.5883C116.637 48.8347 114.857 48.9632 113.912 49.7273C112.867 50.5663 112.571 52.5229 112.175 53.7297C111.654 55.2971 111.166 56.8716 110.72 58.464C109.832 61.6416 109.104 64.8657 108.541 68.1218C107.977 71.3816 107.599 74.6735 107.389 77.9761C107.178 81.2751 107.271 84.5955 106.932 87.8803C106.75 89.6226 104.882 90.5188 103.501 89.3013C103.339 89.1585 103.176 89.0141 103.015 88.8681L102.774 88.6479C101.593 87.5768 100.448 86.4414 99.5031 85.1632C99.3319 84.9276 99.1679 84.6812 99.0145 84.4313C98.9896 84.4313 98.9682 84.4241 98.9432 84.4063L98.6812 84.209C95.7967 82.0597 90.9776 79.2576 88.1649 82.8282C87.2687 83.9657 86.8098 85.4141 86.4289 86.8114L85.7606 89.3123C85.3284 90.9448 84.9216 92.5865 84.6836 94.2569C84.145 97.9987 84.4161 102.312 86.988 105.311C88.0151 106.51 89.4311 107.367 91.0107 107.592C91.892 107.714 92.7623 107.564 93.6361 107.453C94.5242 107.342 95.3798 107.521 96.2682 107.435C97.6806 107.296 98.2976 108.988 97.7698 110.052C97.4845 110.624 97.1488 111.116 96.7676 111.534C97.0739 111.798 97.3668 112.084 97.6485 112.384C98.4831 112.651 99.2317 113.226 99.792 113.987C100.245 114.601 100.48 115.269 100.52 115.972C100.569 116.147 100.612 116.325 100.652 116.507L101.417 117.751C101.585 118.023 101.753 118.293 101.921 118.557C103.868 121.627 106.03 124.227 108.716 126.676C111.301 129.032 114.108 131.142 116.537 133.67L116.823 133.97C119.088 136.359 121.475 139.251 120.589 142.725C120.361 143.617 119.115 144.26 118.303 143.657C115.688 141.714 114.372 138.637 112.154 136.28C109.871 133.852 107.342 131.671 105.053 129.25C102.887 126.965 101.179 124.377 99.8919 121.527C99.378 122.095 98.6293 122.499 97.5914 122.656C95.8082 122.923 94.1458 121.877 93.3686 120.331C92.8689 120.553 92.3593 120.753 91.8453 120.91C89.1418 121.738 87.4409 118.728 88.461 116.504C89.0063 115.311 89.6875 114.276 90.5332 113.405C87.89 113.041 85.2007 111.673 83.4638 109.967C79.1058 105.679 78.5066 99.234 79.4874 93.5036C80.0081 90.4652 80.9066 87.3911 82.0732 84.5384C82.2761 84.0421 82.494 83.5423 82.7327 83.0496C82.6007 83.046 82.4652 82.9889 82.3796 82.8782C81.5913 81.7999 80.6323 80.918 80.047 79.7113C79.5085 78.6044 78.9096 77.4834 78.4848 76.3301C77.6114 73.9701 77.1834 71.3066 76.8981 68.8109C76.3096 63.7017 76.5375 58.6246 77.3189 53.5476C78.6489 44.9001 81.8617 36.6247 86.5949 29.3633C86.3372 29.2278 86.0902 29.0641 85.8601 28.8706L85.7464 28.7714L85.5617 28.6043C84.211 27.3807 84.3276 25.0874 85.5617 23.8482L85.9514 23.4571C86.445 22.9663 86.8705 22.5774 87.6678 22.043C87.7855 21.9641 87.9056 21.8898 88.0273 21.8206C87.61 21.0486 87.4652 20.1461 87.7558 19.1503C88.7688 15.6813 93.7549 15.8041 96.9152 17.3169C100.412 14.1932 104.288 11.4815 108.491 9.2857C118.499 4.05868 129.815 0.413333 140.865 -1.81458ZM89.1318 89.5512C91.0007 88.9407 93.483 90.2224 95.1629 90.9936C97.2921 91.9719 99.104 93.4179 100.859 94.946C101.733 95.7101 101.889 96.9597 101.672 98.0273C101.65 98.1344 101.629 98.2451 101.604 98.3557C101.372 99.4947 100.102 100.391 98.9788 100.359C96.6284 100.294 95.5088 98.2629 94.1781 96.542C94.0216 96.8205 93.8254 97.0775 93.5825 97.2703L93.4185 97.3989C92.8664 97.8197 92.2577 98.1561 91.5282 98.1237C91.011 98.0987 90.5156 97.9666 90.0587 97.7274C88.9174 97.124 88.4149 95.6458 88.7248 94.4426C88.9174 93.6857 89.3597 93.093 89.9375 92.6824L89.7221 92.535C89.2613 92.2139 88.841 91.8755 88.5134 91.376L88.4395 91.2578H88.468C88.1114 90.6437 88.3436 89.8083 89.1318 89.5512Z" />
    <path fill-rule="evenodd" clip-rule="evenodd" d="M166.547 113.241C167.058 112.349 168.237 111.522 169.315 111.649C174.144 112.217 174.136 118.089 172.271 121.517C170.618 124.556 167.195 126.34 163.77 126.08C160.172 125.806 157.107 123.684 155.757 120.309C154.865 118.076 154.453 113.954 156.826 112.454C156.87 112.426 156.943 112.433 156.978 112.474C158.116 113.801 158.161 115.794 159.157 117.273C160.084 118.647 161.524 119.783 163.21 119.958C164.47 120.089 165.744 119.633 166.236 118.499C166.503 117.886 166.473 117.553 166.372 117.131L166.281 116.764C165.966 115.479 165.824 114.501 166.547 113.241ZM167.838 87.4899C170.357 89.0253 174.195 92.6054 171.485 96.4117C168.295 99.7678 163.703 95.9198 161.44 94.1795C159.342 92.8307 156.984 96.2996 158.931 97.8745C175.283 110.015 181.92 87.8914 169.112 85.6847C167.702 85.4416 167.178 87.0149 167.838 87.4899ZM141.238 76.9619C142.784 74.6358 146.313 74.9783 147.165 77.7385C147.626 79.2337 146.989 80.5777 147.022 82.0709C147.05 83.3323 146.968 84.7378 146.582 85.9594C145.703 88.7451 143.204 90.7126 140.249 90.6309C137.303 90.5497 134.708 88.6798 133.474 86.0464C132.236 83.4029 132.498 80.667 133.402 77.979C133.445 77.8499 133.614 77.7874 133.716 77.8961C134.784 79.0348 135.566 80.2369 136.376 81.512L137.205 82.8189C137.839 83.803 138.76 85.0601 139.944 84.9812L140.122 84.9636C140.451 84.9353 140.4 85.0007 140.654 84.5512C140.771 84.3431 140.75 83.9564 140.807 83.7109L140.826 83.628V83.628L140.816 83.5833C140.791 83.4644 140.766 83.2403 140.745 82.8515L140.741 82.7657C140.656 80.947 140.143 78.6099 141.238 76.9619ZM180.429 78.5104C180.152 75.5354 184.323 74.8748 185.71 77.0761C186.433 78.2241 186.643 79.6661 186.803 81.0323L186.878 81.6807C187.042 83.0839 187.107 84.5437 186.5 85.8525C185.543 87.914 183.463 89.0038 181.219 88.8312C179.075 88.666 177.12 87.42 176.089 85.5284C175.17 83.8406 174.257 80.5451 175.373 78.7847C175.44 78.678 175.575 78.6643 175.667 78.7466C176.722 79.6855 176.894 81.3981 177.521 82.6213C178.168 83.8831 179.149 85.1126 180.635 85.3043C182.058 85.4876 182.601 84.7086 182.238 83.3489C181.77 81.5934 180.605 80.3993 180.429 78.5104ZM142.365 59.2749L143.047 59.013C145.384 58.1277 148.593 57.1044 150.493 59.01C151.665 60.1851 151.888 61.9161 151.051 63.3501C150.038 65.0871 148.219 65.1299 146.464 65.3858C144.467 65.6768 142.435 66.2301 140.576 67.0188C138.482 67.9076 136.538 69.0154 134.634 70.2527C132.824 71.4284 131.02 73.3501 128.854 73.7124C128.765 73.7271 128.665 73.6889 128.642 73.5916C128.15 71.4676 129.517 69.3773 130.737 67.7202C132.214 65.7139 134.003 64.0672 136.002 62.5908C137.932 61.1655 140.137 60.1356 142.365 59.2749ZM184.817 66.8267L185.025 66.7901C186.442 66.5535 187.727 66.608 188.795 67.7335C189.61 68.5922 189.924 69.705 189.536 70.8403C189.177 71.8876 188.375 72.9516 187.211 73.1711C183.282 73.9123 178.93 73.7899 174.981 73.2286C173.175 72.9717 171.352 72.6573 169.592 72.1616L168.783 71.9262C167.314 71.5054 165.632 71.0658 164.565 69.9823C164.181 69.593 164.402 69.0357 164.861 68.8554C166.723 68.1242 169.275 68.5132 171.261 68.456C173.57 68.3898 175.883 68.2162 178.182 67.977C180.428 67.7429 182.602 67.2341 184.817 66.8267Z"/>
  </g>
</svg>
