<?xml version="1.0" standalone="no"?>
<!DOCTYPE svg PUBLIC "-//W3C//DTD SVG 20010904//EN"
 "http://www.w3.org/TR/2001/REC-SVG-20010904/DTD/svg10.dtd">
<svg version="1.0" xmlns="http://www.w3.org/2000/svg"
 width="270.000000pt" height="270.000000pt" viewBox="0 0 270.000000 270.000000"
 preserveAspectRatio="xMidYMid meet">
<metadata>
Created by potrace 1.11, written by Peter Selinger 2001-2013
</metadata>
<g transform="translate(0.000000,270.000000) scale(0.100000,-0.100000)"
fill="#000000" stroke="none">
<path d="M423 2689 c-193 -33 -342 -164 -400 -354 -17 -56 -18 -117 -18 -985
l0 -925 22 -70 c51 -162 172 -281 338 -332 56 -17 116 -18 985 -18 l925 0 70
22 c162 51 281 172 332 338 17 56 18 116 18 985 l0 925 -22 70 c-50 160 -168
277 -333 331 -51 17 -113 19 -960 20 -498 1 -928 -2 -957 -7z m1477 -869 c147
-28 263 -135 296 -272 l6 -28 -60 0 -60 0 -12 36 c-30 90 -129 154 -239 154
-97 0 -138 -16 -203 -80 -72 -73 -98 -147 -98 -285 0 -228 110 -365 295 -365
118 0 201 53 246 157 18 43 19 43 69 43 33 0 52 -5 56 -13 10 -28 -38 -127
-87 -182 -145 -158 -413 -162 -567 -8 -86 86 -132 214 -132 365 0 251 110 418
311 472 66 18 109 19 179 6z m-920 -10 c0 -6 -49 -81 -108 -168 -59 -86 -111
-162 -115 -168 -5 -8 6 -10 37 -7 58 7 145 -19 197 -60 23 -17 56 -57 73 -87
29 -51 31 -62 31 -155 0 -93 -2 -104 -31 -155 -94 -166 -344 -197 -470 -58
-98 109 -108 262 -28 420 25 50 189 300 261 401 35 47 35 47 94 47 34 0 59 -4
59 -10z m315 -776 c21 -8 45 -56 45 -89 0 -53 -68 -90 -125 -69 -20 8 -45 56
-45 86 1 54 69 93 125 72z"/>
<path d="M725 1340 c-55 -27 -87 -78 -93 -145 -6 -77 5 -120 41 -162 56 -64
134 -80 213 -44 72 33 114 122 100 213 -19 126 -148 194 -261 138z"/>
</g>
</svg>
